%TF.GenerationSoftware,KiCad,Pcbnew,(7.0.0)*%
%TF.CreationDate,2023-03-04T17:35:51+02:00*%
%TF.ProjectId,Efectul cap de cuplaj si decuplare,45666563-7475-46c2-9063-617020646520,rev?*%
%TF.SameCoordinates,Original*%
%TF.FileFunction,Legend,Top*%
%TF.FilePolarity,Positive*%
%FSLAX46Y46*%
G04 Gerber Fmt 4.6, Leading zero omitted, Abs format (unit mm)*
G04 Created by KiCad (PCBNEW (7.0.0)) date 2023-03-04 17:35:51*
%MOMM*%
%LPD*%
G01*
G04 APERTURE LIST*
%ADD10C,0.300000*%
%ADD11C,0.150000*%
%ADD12C,0.120000*%
%ADD13C,0.050000*%
G04 APERTURE END LIST*
D10*
X134469521Y-47597142D02*
X135136188Y-47597142D01*
X135421902Y-48644761D02*
X134469521Y-48644761D01*
X134469521Y-48644761D02*
X134469521Y-46644761D01*
X134469521Y-46644761D02*
X135421902Y-46644761D01*
X135993331Y-47311428D02*
X136755235Y-47311428D01*
X136279045Y-48644761D02*
X136279045Y-46930476D01*
X136279045Y-46930476D02*
X136374283Y-46740000D01*
X136374283Y-46740000D02*
X136564759Y-46644761D01*
X136564759Y-46644761D02*
X136755235Y-46644761D01*
X138183807Y-48549523D02*
X137993331Y-48644761D01*
X137993331Y-48644761D02*
X137612378Y-48644761D01*
X137612378Y-48644761D02*
X137421902Y-48549523D01*
X137421902Y-48549523D02*
X137326664Y-48359047D01*
X137326664Y-48359047D02*
X137326664Y-47597142D01*
X137326664Y-47597142D02*
X137421902Y-47406666D01*
X137421902Y-47406666D02*
X137612378Y-47311428D01*
X137612378Y-47311428D02*
X137993331Y-47311428D01*
X137993331Y-47311428D02*
X138183807Y-47406666D01*
X138183807Y-47406666D02*
X138279045Y-47597142D01*
X138279045Y-47597142D02*
X138279045Y-47787619D01*
X138279045Y-47787619D02*
X137326664Y-47978095D01*
X139993331Y-48549523D02*
X139802855Y-48644761D01*
X139802855Y-48644761D02*
X139421902Y-48644761D01*
X139421902Y-48644761D02*
X139231426Y-48549523D01*
X139231426Y-48549523D02*
X139136188Y-48454285D01*
X139136188Y-48454285D02*
X139040950Y-48263809D01*
X139040950Y-48263809D02*
X139040950Y-47692380D01*
X139040950Y-47692380D02*
X139136188Y-47501904D01*
X139136188Y-47501904D02*
X139231426Y-47406666D01*
X139231426Y-47406666D02*
X139421902Y-47311428D01*
X139421902Y-47311428D02*
X139802855Y-47311428D01*
X139802855Y-47311428D02*
X139993331Y-47406666D01*
X140564760Y-47311428D02*
X141326664Y-47311428D01*
X140850474Y-46644761D02*
X140850474Y-48359047D01*
X140850474Y-48359047D02*
X140945712Y-48549523D01*
X140945712Y-48549523D02*
X141136188Y-48644761D01*
X141136188Y-48644761D02*
X141326664Y-48644761D01*
X142850474Y-47311428D02*
X142850474Y-48644761D01*
X141993331Y-47311428D02*
X141993331Y-48359047D01*
X141993331Y-48359047D02*
X142088569Y-48549523D01*
X142088569Y-48549523D02*
X142279045Y-48644761D01*
X142279045Y-48644761D02*
X142564760Y-48644761D01*
X142564760Y-48644761D02*
X142755236Y-48549523D01*
X142755236Y-48549523D02*
X142850474Y-48454285D01*
X144088569Y-48644761D02*
X143898093Y-48549523D01*
X143898093Y-48549523D02*
X143802855Y-48359047D01*
X143802855Y-48359047D02*
X143802855Y-46644761D01*
X146907617Y-48549523D02*
X146717141Y-48644761D01*
X146717141Y-48644761D02*
X146336188Y-48644761D01*
X146336188Y-48644761D02*
X146145712Y-48549523D01*
X146145712Y-48549523D02*
X146050474Y-48454285D01*
X146050474Y-48454285D02*
X145955236Y-48263809D01*
X145955236Y-48263809D02*
X145955236Y-47692380D01*
X145955236Y-47692380D02*
X146050474Y-47501904D01*
X146050474Y-47501904D02*
X146145712Y-47406666D01*
X146145712Y-47406666D02*
X146336188Y-47311428D01*
X146336188Y-47311428D02*
X146717141Y-47311428D01*
X146717141Y-47311428D02*
X146907617Y-47406666D01*
X148621903Y-48644761D02*
X148621903Y-47597142D01*
X148621903Y-47597142D02*
X148526665Y-47406666D01*
X148526665Y-47406666D02*
X148336189Y-47311428D01*
X148336189Y-47311428D02*
X147955236Y-47311428D01*
X147955236Y-47311428D02*
X147764760Y-47406666D01*
X148621903Y-48549523D02*
X148431427Y-48644761D01*
X148431427Y-48644761D02*
X147955236Y-48644761D01*
X147955236Y-48644761D02*
X147764760Y-48549523D01*
X147764760Y-48549523D02*
X147669522Y-48359047D01*
X147669522Y-48359047D02*
X147669522Y-48168571D01*
X147669522Y-48168571D02*
X147764760Y-47978095D01*
X147764760Y-47978095D02*
X147955236Y-47882857D01*
X147955236Y-47882857D02*
X148431427Y-47882857D01*
X148431427Y-47882857D02*
X148621903Y-47787619D01*
X149574284Y-47311428D02*
X149574284Y-49311428D01*
X149574284Y-47406666D02*
X149764760Y-47311428D01*
X149764760Y-47311428D02*
X150145713Y-47311428D01*
X150145713Y-47311428D02*
X150336189Y-47406666D01*
X150336189Y-47406666D02*
X150431427Y-47501904D01*
X150431427Y-47501904D02*
X150526665Y-47692380D01*
X150526665Y-47692380D02*
X150526665Y-48263809D01*
X150526665Y-48263809D02*
X150431427Y-48454285D01*
X150431427Y-48454285D02*
X150336189Y-48549523D01*
X150336189Y-48549523D02*
X150145713Y-48644761D01*
X150145713Y-48644761D02*
X149764760Y-48644761D01*
X149764760Y-48644761D02*
X149574284Y-48549523D01*
X152240951Y-48644761D02*
X152240951Y-47597142D01*
X152240951Y-47597142D02*
X152145713Y-47406666D01*
X152145713Y-47406666D02*
X151955237Y-47311428D01*
X151955237Y-47311428D02*
X151574284Y-47311428D01*
X151574284Y-47311428D02*
X151383808Y-47406666D01*
X152240951Y-48549523D02*
X152050475Y-48644761D01*
X152050475Y-48644761D02*
X151574284Y-48644761D01*
X151574284Y-48644761D02*
X151383808Y-48549523D01*
X151383808Y-48549523D02*
X151288570Y-48359047D01*
X151288570Y-48359047D02*
X151288570Y-48168571D01*
X151288570Y-48168571D02*
X151383808Y-47978095D01*
X151383808Y-47978095D02*
X151574284Y-47882857D01*
X151574284Y-47882857D02*
X152050475Y-47882857D01*
X152050475Y-47882857D02*
X152240951Y-47787619D01*
X154050475Y-48549523D02*
X153859999Y-48644761D01*
X153859999Y-48644761D02*
X153479046Y-48644761D01*
X153479046Y-48644761D02*
X153288570Y-48549523D01*
X153288570Y-48549523D02*
X153193332Y-48454285D01*
X153193332Y-48454285D02*
X153098094Y-48263809D01*
X153098094Y-48263809D02*
X153098094Y-47692380D01*
X153098094Y-47692380D02*
X153193332Y-47501904D01*
X153193332Y-47501904D02*
X153288570Y-47406666D01*
X153288570Y-47406666D02*
X153479046Y-47311428D01*
X153479046Y-47311428D02*
X153859999Y-47311428D01*
X153859999Y-47311428D02*
X154050475Y-47406666D01*
X154907618Y-48644761D02*
X154907618Y-47311428D01*
X154907618Y-46644761D02*
X154812380Y-46740000D01*
X154812380Y-46740000D02*
X154907618Y-46835238D01*
X154907618Y-46835238D02*
X155002856Y-46740000D01*
X155002856Y-46740000D02*
X154907618Y-46644761D01*
X154907618Y-46644761D02*
X154907618Y-46835238D01*
X155574285Y-47311428D02*
X156336189Y-47311428D01*
X155859999Y-46644761D02*
X155859999Y-48359047D01*
X155859999Y-48359047D02*
X155955237Y-48549523D01*
X155955237Y-48549523D02*
X156145713Y-48644761D01*
X156145713Y-48644761D02*
X156336189Y-48644761D01*
X157859999Y-48644761D02*
X157859999Y-47597142D01*
X157859999Y-47597142D02*
X157764761Y-47406666D01*
X157764761Y-47406666D02*
X157574285Y-47311428D01*
X157574285Y-47311428D02*
X157193332Y-47311428D01*
X157193332Y-47311428D02*
X157002856Y-47406666D01*
X157859999Y-48549523D02*
X157669523Y-48644761D01*
X157669523Y-48644761D02*
X157193332Y-48644761D01*
X157193332Y-48644761D02*
X157002856Y-48549523D01*
X157002856Y-48549523D02*
X156907618Y-48359047D01*
X156907618Y-48359047D02*
X156907618Y-48168571D01*
X156907618Y-48168571D02*
X157002856Y-47978095D01*
X157002856Y-47978095D02*
X157193332Y-47882857D01*
X157193332Y-47882857D02*
X157669523Y-47882857D01*
X157669523Y-47882857D02*
X157859999Y-47787619D01*
X158526666Y-47311428D02*
X159288570Y-47311428D01*
X158812380Y-46644761D02*
X158812380Y-48359047D01*
X158812380Y-48359047D02*
X158907618Y-48549523D01*
X158907618Y-48549523D02*
X159098094Y-48644761D01*
X159098094Y-48644761D02*
X159288570Y-48644761D01*
X159955237Y-48644761D02*
X159955237Y-47311428D01*
X159955237Y-46644761D02*
X159859999Y-46740000D01*
X159859999Y-46740000D02*
X159955237Y-46835238D01*
X159955237Y-46835238D02*
X160050475Y-46740000D01*
X160050475Y-46740000D02*
X159955237Y-46644761D01*
X159955237Y-46644761D02*
X159955237Y-46835238D01*
X161193332Y-48644761D02*
X161002856Y-48549523D01*
X161002856Y-48549523D02*
X160907618Y-48359047D01*
X160907618Y-48359047D02*
X160907618Y-46644761D01*
X162240951Y-48644761D02*
X162050475Y-48549523D01*
X162050475Y-48549523D02*
X161955237Y-48454285D01*
X161955237Y-48454285D02*
X161859999Y-48263809D01*
X161859999Y-48263809D02*
X161859999Y-47692380D01*
X161859999Y-47692380D02*
X161955237Y-47501904D01*
X161955237Y-47501904D02*
X162050475Y-47406666D01*
X162050475Y-47406666D02*
X162240951Y-47311428D01*
X162240951Y-47311428D02*
X162526666Y-47311428D01*
X162526666Y-47311428D02*
X162717142Y-47406666D01*
X162717142Y-47406666D02*
X162812380Y-47501904D01*
X162812380Y-47501904D02*
X162907618Y-47692380D01*
X162907618Y-47692380D02*
X162907618Y-48263809D01*
X162907618Y-48263809D02*
X162812380Y-48454285D01*
X162812380Y-48454285D02*
X162717142Y-48549523D01*
X162717142Y-48549523D02*
X162526666Y-48644761D01*
X162526666Y-48644761D02*
X162240951Y-48644761D01*
X163764761Y-48644761D02*
X163764761Y-47311428D01*
X163764761Y-47692380D02*
X163859999Y-47501904D01*
X163859999Y-47501904D02*
X163955237Y-47406666D01*
X163955237Y-47406666D02*
X164145713Y-47311428D01*
X164145713Y-47311428D02*
X164336190Y-47311428D01*
X167059999Y-48644761D02*
X167059999Y-46644761D01*
X167059999Y-48549523D02*
X166869523Y-48644761D01*
X166869523Y-48644761D02*
X166488570Y-48644761D01*
X166488570Y-48644761D02*
X166298094Y-48549523D01*
X166298094Y-48549523D02*
X166202856Y-48454285D01*
X166202856Y-48454285D02*
X166107618Y-48263809D01*
X166107618Y-48263809D02*
X166107618Y-47692380D01*
X166107618Y-47692380D02*
X166202856Y-47501904D01*
X166202856Y-47501904D02*
X166298094Y-47406666D01*
X166298094Y-47406666D02*
X166488570Y-47311428D01*
X166488570Y-47311428D02*
X166869523Y-47311428D01*
X166869523Y-47311428D02*
X167059999Y-47406666D01*
X168774285Y-48549523D02*
X168583809Y-48644761D01*
X168583809Y-48644761D02*
X168202856Y-48644761D01*
X168202856Y-48644761D02*
X168012380Y-48549523D01*
X168012380Y-48549523D02*
X167917142Y-48359047D01*
X167917142Y-48359047D02*
X167917142Y-47597142D01*
X167917142Y-47597142D02*
X168012380Y-47406666D01*
X168012380Y-47406666D02*
X168202856Y-47311428D01*
X168202856Y-47311428D02*
X168583809Y-47311428D01*
X168583809Y-47311428D02*
X168774285Y-47406666D01*
X168774285Y-47406666D02*
X168869523Y-47597142D01*
X168869523Y-47597142D02*
X168869523Y-47787619D01*
X168869523Y-47787619D02*
X167917142Y-47978095D01*
X171783809Y-48549523D02*
X171593333Y-48644761D01*
X171593333Y-48644761D02*
X171212380Y-48644761D01*
X171212380Y-48644761D02*
X171021904Y-48549523D01*
X171021904Y-48549523D02*
X170926666Y-48454285D01*
X170926666Y-48454285D02*
X170831428Y-48263809D01*
X170831428Y-48263809D02*
X170831428Y-47692380D01*
X170831428Y-47692380D02*
X170926666Y-47501904D01*
X170926666Y-47501904D02*
X171021904Y-47406666D01*
X171021904Y-47406666D02*
X171212380Y-47311428D01*
X171212380Y-47311428D02*
X171593333Y-47311428D01*
X171593333Y-47311428D02*
X171783809Y-47406666D01*
X173498095Y-47311428D02*
X173498095Y-48644761D01*
X172640952Y-47311428D02*
X172640952Y-48359047D01*
X172640952Y-48359047D02*
X172736190Y-48549523D01*
X172736190Y-48549523D02*
X172926666Y-48644761D01*
X172926666Y-48644761D02*
X173212381Y-48644761D01*
X173212381Y-48644761D02*
X173402857Y-48549523D01*
X173402857Y-48549523D02*
X173498095Y-48454285D01*
X174450476Y-47311428D02*
X174450476Y-49311428D01*
X174450476Y-47406666D02*
X174640952Y-47311428D01*
X174640952Y-47311428D02*
X175021905Y-47311428D01*
X175021905Y-47311428D02*
X175212381Y-47406666D01*
X175212381Y-47406666D02*
X175307619Y-47501904D01*
X175307619Y-47501904D02*
X175402857Y-47692380D01*
X175402857Y-47692380D02*
X175402857Y-48263809D01*
X175402857Y-48263809D02*
X175307619Y-48454285D01*
X175307619Y-48454285D02*
X175212381Y-48549523D01*
X175212381Y-48549523D02*
X175021905Y-48644761D01*
X175021905Y-48644761D02*
X174640952Y-48644761D01*
X174640952Y-48644761D02*
X174450476Y-48549523D01*
X176545714Y-48644761D02*
X176355238Y-48549523D01*
X176355238Y-48549523D02*
X176260000Y-48359047D01*
X176260000Y-48359047D02*
X176260000Y-46644761D01*
X178164762Y-48644761D02*
X178164762Y-47597142D01*
X178164762Y-47597142D02*
X178069524Y-47406666D01*
X178069524Y-47406666D02*
X177879048Y-47311428D01*
X177879048Y-47311428D02*
X177498095Y-47311428D01*
X177498095Y-47311428D02*
X177307619Y-47406666D01*
X178164762Y-48549523D02*
X177974286Y-48644761D01*
X177974286Y-48644761D02*
X177498095Y-48644761D01*
X177498095Y-48644761D02*
X177307619Y-48549523D01*
X177307619Y-48549523D02*
X177212381Y-48359047D01*
X177212381Y-48359047D02*
X177212381Y-48168571D01*
X177212381Y-48168571D02*
X177307619Y-47978095D01*
X177307619Y-47978095D02*
X177498095Y-47882857D01*
X177498095Y-47882857D02*
X177974286Y-47882857D01*
X177974286Y-47882857D02*
X178164762Y-47787619D01*
X179117143Y-48644761D02*
X179117143Y-47311428D01*
X179117143Y-47692380D02*
X179212381Y-47501904D01*
X179212381Y-47501904D02*
X179307619Y-47406666D01*
X179307619Y-47406666D02*
X179498095Y-47311428D01*
X179498095Y-47311428D02*
X179688572Y-47311428D01*
X181117143Y-48549523D02*
X180926667Y-48644761D01*
X180926667Y-48644761D02*
X180545714Y-48644761D01*
X180545714Y-48644761D02*
X180355238Y-48549523D01*
X180355238Y-48549523D02*
X180260000Y-48359047D01*
X180260000Y-48359047D02*
X180260000Y-47597142D01*
X180260000Y-47597142D02*
X180355238Y-47406666D01*
X180355238Y-47406666D02*
X180545714Y-47311428D01*
X180545714Y-47311428D02*
X180926667Y-47311428D01*
X180926667Y-47311428D02*
X181117143Y-47406666D01*
X181117143Y-47406666D02*
X181212381Y-47597142D01*
X181212381Y-47597142D02*
X181212381Y-47787619D01*
X181212381Y-47787619D02*
X180260000Y-47978095D01*
X183174286Y-48549523D02*
X183364762Y-48644761D01*
X183364762Y-48644761D02*
X183745714Y-48644761D01*
X183745714Y-48644761D02*
X183936191Y-48549523D01*
X183936191Y-48549523D02*
X184031429Y-48359047D01*
X184031429Y-48359047D02*
X184031429Y-48263809D01*
X184031429Y-48263809D02*
X183936191Y-48073333D01*
X183936191Y-48073333D02*
X183745714Y-47978095D01*
X183745714Y-47978095D02*
X183460000Y-47978095D01*
X183460000Y-47978095D02*
X183269524Y-47882857D01*
X183269524Y-47882857D02*
X183174286Y-47692380D01*
X183174286Y-47692380D02*
X183174286Y-47597142D01*
X183174286Y-47597142D02*
X183269524Y-47406666D01*
X183269524Y-47406666D02*
X183460000Y-47311428D01*
X183460000Y-47311428D02*
X183745714Y-47311428D01*
X183745714Y-47311428D02*
X183936191Y-47406666D01*
X184888572Y-48644761D02*
X184888572Y-47311428D01*
X184888572Y-46644761D02*
X184793334Y-46740000D01*
X184793334Y-46740000D02*
X184888572Y-46835238D01*
X184888572Y-46835238D02*
X184983810Y-46740000D01*
X184983810Y-46740000D02*
X184888572Y-46644761D01*
X184888572Y-46644761D02*
X184888572Y-46835238D01*
X187898096Y-48644761D02*
X187898096Y-46644761D01*
X187898096Y-48549523D02*
X187707620Y-48644761D01*
X187707620Y-48644761D02*
X187326667Y-48644761D01*
X187326667Y-48644761D02*
X187136191Y-48549523D01*
X187136191Y-48549523D02*
X187040953Y-48454285D01*
X187040953Y-48454285D02*
X186945715Y-48263809D01*
X186945715Y-48263809D02*
X186945715Y-47692380D01*
X186945715Y-47692380D02*
X187040953Y-47501904D01*
X187040953Y-47501904D02*
X187136191Y-47406666D01*
X187136191Y-47406666D02*
X187326667Y-47311428D01*
X187326667Y-47311428D02*
X187707620Y-47311428D01*
X187707620Y-47311428D02*
X187898096Y-47406666D01*
X189612382Y-48549523D02*
X189421906Y-48644761D01*
X189421906Y-48644761D02*
X189040953Y-48644761D01*
X189040953Y-48644761D02*
X188850477Y-48549523D01*
X188850477Y-48549523D02*
X188755239Y-48359047D01*
X188755239Y-48359047D02*
X188755239Y-47597142D01*
X188755239Y-47597142D02*
X188850477Y-47406666D01*
X188850477Y-47406666D02*
X189040953Y-47311428D01*
X189040953Y-47311428D02*
X189421906Y-47311428D01*
X189421906Y-47311428D02*
X189612382Y-47406666D01*
X189612382Y-47406666D02*
X189707620Y-47597142D01*
X189707620Y-47597142D02*
X189707620Y-47787619D01*
X189707620Y-47787619D02*
X188755239Y-47978095D01*
X191421906Y-48549523D02*
X191231430Y-48644761D01*
X191231430Y-48644761D02*
X190850477Y-48644761D01*
X190850477Y-48644761D02*
X190660001Y-48549523D01*
X190660001Y-48549523D02*
X190564763Y-48454285D01*
X190564763Y-48454285D02*
X190469525Y-48263809D01*
X190469525Y-48263809D02*
X190469525Y-47692380D01*
X190469525Y-47692380D02*
X190564763Y-47501904D01*
X190564763Y-47501904D02*
X190660001Y-47406666D01*
X190660001Y-47406666D02*
X190850477Y-47311428D01*
X190850477Y-47311428D02*
X191231430Y-47311428D01*
X191231430Y-47311428D02*
X191421906Y-47406666D01*
X193136192Y-47311428D02*
X193136192Y-48644761D01*
X192279049Y-47311428D02*
X192279049Y-48359047D01*
X192279049Y-48359047D02*
X192374287Y-48549523D01*
X192374287Y-48549523D02*
X192564763Y-48644761D01*
X192564763Y-48644761D02*
X192850478Y-48644761D01*
X192850478Y-48644761D02*
X193040954Y-48549523D01*
X193040954Y-48549523D02*
X193136192Y-48454285D01*
X194088573Y-47311428D02*
X194088573Y-49311428D01*
X194088573Y-47406666D02*
X194279049Y-47311428D01*
X194279049Y-47311428D02*
X194660002Y-47311428D01*
X194660002Y-47311428D02*
X194850478Y-47406666D01*
X194850478Y-47406666D02*
X194945716Y-47501904D01*
X194945716Y-47501904D02*
X195040954Y-47692380D01*
X195040954Y-47692380D02*
X195040954Y-48263809D01*
X195040954Y-48263809D02*
X194945716Y-48454285D01*
X194945716Y-48454285D02*
X194850478Y-48549523D01*
X194850478Y-48549523D02*
X194660002Y-48644761D01*
X194660002Y-48644761D02*
X194279049Y-48644761D01*
X194279049Y-48644761D02*
X194088573Y-48549523D01*
X196183811Y-48644761D02*
X195993335Y-48549523D01*
X195993335Y-48549523D02*
X195898097Y-48359047D01*
X195898097Y-48359047D02*
X195898097Y-46644761D01*
X197802859Y-48644761D02*
X197802859Y-47597142D01*
X197802859Y-47597142D02*
X197707621Y-47406666D01*
X197707621Y-47406666D02*
X197517145Y-47311428D01*
X197517145Y-47311428D02*
X197136192Y-47311428D01*
X197136192Y-47311428D02*
X196945716Y-47406666D01*
X197802859Y-48549523D02*
X197612383Y-48644761D01*
X197612383Y-48644761D02*
X197136192Y-48644761D01*
X197136192Y-48644761D02*
X196945716Y-48549523D01*
X196945716Y-48549523D02*
X196850478Y-48359047D01*
X196850478Y-48359047D02*
X196850478Y-48168571D01*
X196850478Y-48168571D02*
X196945716Y-47978095D01*
X196945716Y-47978095D02*
X197136192Y-47882857D01*
X197136192Y-47882857D02*
X197612383Y-47882857D01*
X197612383Y-47882857D02*
X197802859Y-47787619D01*
X198755240Y-48644761D02*
X198755240Y-47311428D01*
X198755240Y-47692380D02*
X198850478Y-47501904D01*
X198850478Y-47501904D02*
X198945716Y-47406666D01*
X198945716Y-47406666D02*
X199136192Y-47311428D01*
X199136192Y-47311428D02*
X199326669Y-47311428D01*
X200755240Y-48549523D02*
X200564764Y-48644761D01*
X200564764Y-48644761D02*
X200183811Y-48644761D01*
X200183811Y-48644761D02*
X199993335Y-48549523D01*
X199993335Y-48549523D02*
X199898097Y-48359047D01*
X199898097Y-48359047D02*
X199898097Y-47597142D01*
X199898097Y-47597142D02*
X199993335Y-47406666D01*
X199993335Y-47406666D02*
X200183811Y-47311428D01*
X200183811Y-47311428D02*
X200564764Y-47311428D01*
X200564764Y-47311428D02*
X200755240Y-47406666D01*
X200755240Y-47406666D02*
X200850478Y-47597142D01*
X200850478Y-47597142D02*
X200850478Y-47787619D01*
X200850478Y-47787619D02*
X199898097Y-47978095D01*
X203764764Y-48644761D02*
X203764764Y-47597142D01*
X203764764Y-47597142D02*
X203669526Y-47406666D01*
X203669526Y-47406666D02*
X203479050Y-47311428D01*
X203479050Y-47311428D02*
X203098097Y-47311428D01*
X203098097Y-47311428D02*
X202907621Y-47406666D01*
X203764764Y-48549523D02*
X203574288Y-48644761D01*
X203574288Y-48644761D02*
X203098097Y-48644761D01*
X203098097Y-48644761D02*
X202907621Y-48549523D01*
X202907621Y-48549523D02*
X202812383Y-48359047D01*
X202812383Y-48359047D02*
X202812383Y-48168571D01*
X202812383Y-48168571D02*
X202907621Y-47978095D01*
X202907621Y-47978095D02*
X203098097Y-47882857D01*
X203098097Y-47882857D02*
X203574288Y-47882857D01*
X203574288Y-47882857D02*
X203764764Y-47787619D01*
X204621907Y-48549523D02*
X204812383Y-48644761D01*
X204812383Y-48644761D02*
X205193335Y-48644761D01*
X205193335Y-48644761D02*
X205383812Y-48549523D01*
X205383812Y-48549523D02*
X205479050Y-48359047D01*
X205479050Y-48359047D02*
X205479050Y-48263809D01*
X205479050Y-48263809D02*
X205383812Y-48073333D01*
X205383812Y-48073333D02*
X205193335Y-47978095D01*
X205193335Y-47978095D02*
X204907621Y-47978095D01*
X204907621Y-47978095D02*
X204717145Y-47882857D01*
X204717145Y-47882857D02*
X204621907Y-47692380D01*
X204621907Y-47692380D02*
X204621907Y-47597142D01*
X204621907Y-47597142D02*
X204717145Y-47406666D01*
X204717145Y-47406666D02*
X204907621Y-47311428D01*
X204907621Y-47311428D02*
X205193335Y-47311428D01*
X205193335Y-47311428D02*
X205383812Y-47406666D01*
X207193336Y-47311428D02*
X207193336Y-48644761D01*
X206336193Y-47311428D02*
X206336193Y-48359047D01*
X206336193Y-48359047D02*
X206431431Y-48549523D01*
X206431431Y-48549523D02*
X206621907Y-48644761D01*
X206621907Y-48644761D02*
X206907622Y-48644761D01*
X206907622Y-48644761D02*
X207098098Y-48549523D01*
X207098098Y-48549523D02*
X207193336Y-48454285D01*
X208145717Y-47311428D02*
X208145717Y-49311428D01*
X208145717Y-47406666D02*
X208336193Y-47311428D01*
X208336193Y-47311428D02*
X208717146Y-47311428D01*
X208717146Y-47311428D02*
X208907622Y-47406666D01*
X208907622Y-47406666D02*
X209002860Y-47501904D01*
X209002860Y-47501904D02*
X209098098Y-47692380D01*
X209098098Y-47692380D02*
X209098098Y-48263809D01*
X209098098Y-48263809D02*
X209002860Y-48454285D01*
X209002860Y-48454285D02*
X208907622Y-48549523D01*
X208907622Y-48549523D02*
X208717146Y-48644761D01*
X208717146Y-48644761D02*
X208336193Y-48644761D01*
X208336193Y-48644761D02*
X208145717Y-48549523D01*
X209955241Y-48644761D02*
X209955241Y-47311428D01*
X209955241Y-47692380D02*
X210050479Y-47501904D01*
X210050479Y-47501904D02*
X210145717Y-47406666D01*
X210145717Y-47406666D02*
X210336193Y-47311428D01*
X210336193Y-47311428D02*
X210526670Y-47311428D01*
X212050479Y-48644761D02*
X212050479Y-47597142D01*
X212050479Y-47597142D02*
X211955241Y-47406666D01*
X211955241Y-47406666D02*
X211764765Y-47311428D01*
X211764765Y-47311428D02*
X211383812Y-47311428D01*
X211383812Y-47311428D02*
X211193336Y-47406666D01*
X212050479Y-48549523D02*
X211860003Y-48644761D01*
X211860003Y-48644761D02*
X211383812Y-48644761D01*
X211383812Y-48644761D02*
X211193336Y-48549523D01*
X211193336Y-48549523D02*
X211098098Y-48359047D01*
X211098098Y-48359047D02*
X211098098Y-48168571D01*
X211098098Y-48168571D02*
X211193336Y-47978095D01*
X211193336Y-47978095D02*
X211383812Y-47882857D01*
X211383812Y-47882857D02*
X211860003Y-47882857D01*
X211860003Y-47882857D02*
X212050479Y-47787619D01*
X141031426Y-51789523D02*
X140840950Y-51884761D01*
X140840950Y-51884761D02*
X140459997Y-51884761D01*
X140459997Y-51884761D02*
X140269521Y-51789523D01*
X140269521Y-51789523D02*
X140174283Y-51694285D01*
X140174283Y-51694285D02*
X140079045Y-51503809D01*
X140079045Y-51503809D02*
X140079045Y-50932380D01*
X140079045Y-50932380D02*
X140174283Y-50741904D01*
X140174283Y-50741904D02*
X140269521Y-50646666D01*
X140269521Y-50646666D02*
X140459997Y-50551428D01*
X140459997Y-50551428D02*
X140840950Y-50551428D01*
X140840950Y-50551428D02*
X141031426Y-50646666D01*
X142745712Y-51884761D02*
X142745712Y-50837142D01*
X142745712Y-50837142D02*
X142650474Y-50646666D01*
X142650474Y-50646666D02*
X142459998Y-50551428D01*
X142459998Y-50551428D02*
X142079045Y-50551428D01*
X142079045Y-50551428D02*
X141888569Y-50646666D01*
X142745712Y-51789523D02*
X142555236Y-51884761D01*
X142555236Y-51884761D02*
X142079045Y-51884761D01*
X142079045Y-51884761D02*
X141888569Y-51789523D01*
X141888569Y-51789523D02*
X141793331Y-51599047D01*
X141793331Y-51599047D02*
X141793331Y-51408571D01*
X141793331Y-51408571D02*
X141888569Y-51218095D01*
X141888569Y-51218095D02*
X142079045Y-51122857D01*
X142079045Y-51122857D02*
X142555236Y-51122857D01*
X142555236Y-51122857D02*
X142745712Y-51027619D01*
X143698093Y-51884761D02*
X143698093Y-50551428D01*
X143698093Y-50932380D02*
X143793331Y-50741904D01*
X143793331Y-50741904D02*
X143888569Y-50646666D01*
X143888569Y-50646666D02*
X144079045Y-50551428D01*
X144079045Y-50551428D02*
X144269522Y-50551428D01*
X145793331Y-51884761D02*
X145793331Y-50837142D01*
X145793331Y-50837142D02*
X145698093Y-50646666D01*
X145698093Y-50646666D02*
X145507617Y-50551428D01*
X145507617Y-50551428D02*
X145126664Y-50551428D01*
X145126664Y-50551428D02*
X144936188Y-50646666D01*
X145793331Y-51789523D02*
X145602855Y-51884761D01*
X145602855Y-51884761D02*
X145126664Y-51884761D01*
X145126664Y-51884761D02*
X144936188Y-51789523D01*
X144936188Y-51789523D02*
X144840950Y-51599047D01*
X144840950Y-51599047D02*
X144840950Y-51408571D01*
X144840950Y-51408571D02*
X144936188Y-51218095D01*
X144936188Y-51218095D02*
X145126664Y-51122857D01*
X145126664Y-51122857D02*
X145602855Y-51122857D01*
X145602855Y-51122857D02*
X145793331Y-51027619D01*
X147602855Y-51789523D02*
X147412379Y-51884761D01*
X147412379Y-51884761D02*
X147031426Y-51884761D01*
X147031426Y-51884761D02*
X146840950Y-51789523D01*
X146840950Y-51789523D02*
X146745712Y-51694285D01*
X146745712Y-51694285D02*
X146650474Y-51503809D01*
X146650474Y-51503809D02*
X146650474Y-50932380D01*
X146650474Y-50932380D02*
X146745712Y-50741904D01*
X146745712Y-50741904D02*
X146840950Y-50646666D01*
X146840950Y-50646666D02*
X147031426Y-50551428D01*
X147031426Y-50551428D02*
X147412379Y-50551428D01*
X147412379Y-50551428D02*
X147602855Y-50646666D01*
X148174284Y-50551428D02*
X148936188Y-50551428D01*
X148459998Y-49884761D02*
X148459998Y-51599047D01*
X148459998Y-51599047D02*
X148555236Y-51789523D01*
X148555236Y-51789523D02*
X148745712Y-51884761D01*
X148745712Y-51884761D02*
X148936188Y-51884761D01*
X150364760Y-51789523D02*
X150174284Y-51884761D01*
X150174284Y-51884761D02*
X149793331Y-51884761D01*
X149793331Y-51884761D02*
X149602855Y-51789523D01*
X149602855Y-51789523D02*
X149507617Y-51599047D01*
X149507617Y-51599047D02*
X149507617Y-50837142D01*
X149507617Y-50837142D02*
X149602855Y-50646666D01*
X149602855Y-50646666D02*
X149793331Y-50551428D01*
X149793331Y-50551428D02*
X150174284Y-50551428D01*
X150174284Y-50551428D02*
X150364760Y-50646666D01*
X150364760Y-50646666D02*
X150459998Y-50837142D01*
X150459998Y-50837142D02*
X150459998Y-51027619D01*
X150459998Y-51027619D02*
X149507617Y-51218095D01*
X151317141Y-51884761D02*
X151317141Y-50551428D01*
X151317141Y-50932380D02*
X151412379Y-50741904D01*
X151412379Y-50741904D02*
X151507617Y-50646666D01*
X151507617Y-50646666D02*
X151698093Y-50551428D01*
X151698093Y-50551428D02*
X151888570Y-50551428D01*
X152555236Y-51884761D02*
X152555236Y-50551428D01*
X152555236Y-49884761D02*
X152459998Y-49980000D01*
X152459998Y-49980000D02*
X152555236Y-50075238D01*
X152555236Y-50075238D02*
X152650474Y-49980000D01*
X152650474Y-49980000D02*
X152555236Y-49884761D01*
X152555236Y-49884761D02*
X152555236Y-50075238D01*
X153412379Y-51789523D02*
X153602855Y-51884761D01*
X153602855Y-51884761D02*
X153983807Y-51884761D01*
X153983807Y-51884761D02*
X154174284Y-51789523D01*
X154174284Y-51789523D02*
X154269522Y-51599047D01*
X154269522Y-51599047D02*
X154269522Y-51503809D01*
X154269522Y-51503809D02*
X154174284Y-51313333D01*
X154174284Y-51313333D02*
X153983807Y-51218095D01*
X153983807Y-51218095D02*
X153698093Y-51218095D01*
X153698093Y-51218095D02*
X153507617Y-51122857D01*
X153507617Y-51122857D02*
X153412379Y-50932380D01*
X153412379Y-50932380D02*
X153412379Y-50837142D01*
X153412379Y-50837142D02*
X153507617Y-50646666D01*
X153507617Y-50646666D02*
X153698093Y-50551428D01*
X153698093Y-50551428D02*
X153983807Y-50551428D01*
X153983807Y-50551428D02*
X154174284Y-50646666D01*
X154840951Y-50551428D02*
X155602855Y-50551428D01*
X155126665Y-49884761D02*
X155126665Y-51599047D01*
X155126665Y-51599047D02*
X155221903Y-51789523D01*
X155221903Y-51789523D02*
X155412379Y-51884761D01*
X155412379Y-51884761D02*
X155602855Y-51884761D01*
X156269522Y-51884761D02*
X156269522Y-50551428D01*
X156269522Y-49884761D02*
X156174284Y-49980000D01*
X156174284Y-49980000D02*
X156269522Y-50075238D01*
X156269522Y-50075238D02*
X156364760Y-49980000D01*
X156364760Y-49980000D02*
X156269522Y-49884761D01*
X156269522Y-49884761D02*
X156269522Y-50075238D01*
X158079046Y-51789523D02*
X157888570Y-51884761D01*
X157888570Y-51884761D02*
X157507617Y-51884761D01*
X157507617Y-51884761D02*
X157317141Y-51789523D01*
X157317141Y-51789523D02*
X157221903Y-51694285D01*
X157221903Y-51694285D02*
X157126665Y-51503809D01*
X157126665Y-51503809D02*
X157126665Y-50932380D01*
X157126665Y-50932380D02*
X157221903Y-50741904D01*
X157221903Y-50741904D02*
X157317141Y-50646666D01*
X157317141Y-50646666D02*
X157507617Y-50551428D01*
X157507617Y-50551428D02*
X157888570Y-50551428D01*
X157888570Y-50551428D02*
X158079046Y-50646666D01*
X158936189Y-51884761D02*
X158936189Y-50551428D01*
X158936189Y-49884761D02*
X158840951Y-49980000D01*
X158840951Y-49980000D02*
X158936189Y-50075238D01*
X158936189Y-50075238D02*
X159031427Y-49980000D01*
X159031427Y-49980000D02*
X158936189Y-49884761D01*
X158936189Y-49884761D02*
X158936189Y-50075238D01*
X159888570Y-51884761D02*
X159888570Y-50551428D01*
X159888570Y-49884761D02*
X159793332Y-49980000D01*
X159793332Y-49980000D02*
X159888570Y-50075238D01*
X159888570Y-50075238D02*
X159983808Y-49980000D01*
X159983808Y-49980000D02*
X159888570Y-49884761D01*
X159888570Y-49884761D02*
X159888570Y-50075238D01*
X162898094Y-51884761D02*
X162898094Y-49884761D01*
X162898094Y-51789523D02*
X162707618Y-51884761D01*
X162707618Y-51884761D02*
X162326665Y-51884761D01*
X162326665Y-51884761D02*
X162136189Y-51789523D01*
X162136189Y-51789523D02*
X162040951Y-51694285D01*
X162040951Y-51694285D02*
X161945713Y-51503809D01*
X161945713Y-51503809D02*
X161945713Y-50932380D01*
X161945713Y-50932380D02*
X162040951Y-50741904D01*
X162040951Y-50741904D02*
X162136189Y-50646666D01*
X162136189Y-50646666D02*
X162326665Y-50551428D01*
X162326665Y-50551428D02*
X162707618Y-50551428D01*
X162707618Y-50551428D02*
X162898094Y-50646666D01*
X164612380Y-51789523D02*
X164421904Y-51884761D01*
X164421904Y-51884761D02*
X164040951Y-51884761D01*
X164040951Y-51884761D02*
X163850475Y-51789523D01*
X163850475Y-51789523D02*
X163755237Y-51599047D01*
X163755237Y-51599047D02*
X163755237Y-50837142D01*
X163755237Y-50837142D02*
X163850475Y-50646666D01*
X163850475Y-50646666D02*
X164040951Y-50551428D01*
X164040951Y-50551428D02*
X164421904Y-50551428D01*
X164421904Y-50551428D02*
X164612380Y-50646666D01*
X164612380Y-50646666D02*
X164707618Y-50837142D01*
X164707618Y-50837142D02*
X164707618Y-51027619D01*
X164707618Y-51027619D02*
X163755237Y-51218095D01*
X166479047Y-50551428D02*
X167240951Y-50551428D01*
X166764761Y-51884761D02*
X166764761Y-50170476D01*
X166764761Y-50170476D02*
X166859999Y-49980000D01*
X166859999Y-49980000D02*
X167050475Y-49884761D01*
X167050475Y-49884761D02*
X167240951Y-49884761D01*
X167907618Y-51884761D02*
X167907618Y-50551428D01*
X167907618Y-50932380D02*
X168002856Y-50741904D01*
X168002856Y-50741904D02*
X168098094Y-50646666D01*
X168098094Y-50646666D02*
X168288570Y-50551428D01*
X168288570Y-50551428D02*
X168479047Y-50551428D01*
X169907618Y-51789523D02*
X169717142Y-51884761D01*
X169717142Y-51884761D02*
X169336189Y-51884761D01*
X169336189Y-51884761D02*
X169145713Y-51789523D01*
X169145713Y-51789523D02*
X169050475Y-51599047D01*
X169050475Y-51599047D02*
X169050475Y-50837142D01*
X169050475Y-50837142D02*
X169145713Y-50646666D01*
X169145713Y-50646666D02*
X169336189Y-50551428D01*
X169336189Y-50551428D02*
X169717142Y-50551428D01*
X169717142Y-50551428D02*
X169907618Y-50646666D01*
X169907618Y-50646666D02*
X170002856Y-50837142D01*
X170002856Y-50837142D02*
X170002856Y-51027619D01*
X170002856Y-51027619D02*
X169050475Y-51218095D01*
X171717142Y-51789523D02*
X171526666Y-51884761D01*
X171526666Y-51884761D02*
X171145713Y-51884761D01*
X171145713Y-51884761D02*
X170955237Y-51789523D01*
X170955237Y-51789523D02*
X170859999Y-51694285D01*
X170859999Y-51694285D02*
X170764761Y-51503809D01*
X170764761Y-51503809D02*
X170764761Y-50932380D01*
X170764761Y-50932380D02*
X170859999Y-50741904D01*
X170859999Y-50741904D02*
X170955237Y-50646666D01*
X170955237Y-50646666D02*
X171145713Y-50551428D01*
X171145713Y-50551428D02*
X171526666Y-50551428D01*
X171526666Y-50551428D02*
X171717142Y-50646666D01*
X172383809Y-50551428D02*
X172859999Y-51884761D01*
X172859999Y-51884761D02*
X173336190Y-50551428D01*
X174860000Y-51789523D02*
X174669524Y-51884761D01*
X174669524Y-51884761D02*
X174288571Y-51884761D01*
X174288571Y-51884761D02*
X174098095Y-51789523D01*
X174098095Y-51789523D02*
X174002857Y-51599047D01*
X174002857Y-51599047D02*
X174002857Y-50837142D01*
X174002857Y-50837142D02*
X174098095Y-50646666D01*
X174098095Y-50646666D02*
X174288571Y-50551428D01*
X174288571Y-50551428D02*
X174669524Y-50551428D01*
X174669524Y-50551428D02*
X174860000Y-50646666D01*
X174860000Y-50646666D02*
X174955238Y-50837142D01*
X174955238Y-50837142D02*
X174955238Y-51027619D01*
X174955238Y-51027619D02*
X174002857Y-51218095D01*
X175812381Y-50551428D02*
X175812381Y-51884761D01*
X175812381Y-50741904D02*
X175907619Y-50646666D01*
X175907619Y-50646666D02*
X176098095Y-50551428D01*
X176098095Y-50551428D02*
X176383810Y-50551428D01*
X176383810Y-50551428D02*
X176574286Y-50646666D01*
X176574286Y-50646666D02*
X176669524Y-50837142D01*
X176669524Y-50837142D02*
X176669524Y-51884761D01*
X177336191Y-50551428D02*
X178098095Y-50551428D01*
X177621905Y-49884761D02*
X177621905Y-51599047D01*
X177621905Y-51599047D02*
X177717143Y-51789523D01*
X177717143Y-51789523D02*
X177907619Y-51884761D01*
X177907619Y-51884761D02*
X178098095Y-51884761D01*
X179621905Y-51884761D02*
X179621905Y-50837142D01*
X179621905Y-50837142D02*
X179526667Y-50646666D01*
X179526667Y-50646666D02*
X179336191Y-50551428D01*
X179336191Y-50551428D02*
X178955238Y-50551428D01*
X178955238Y-50551428D02*
X178764762Y-50646666D01*
X179621905Y-51789523D02*
X179431429Y-51884761D01*
X179431429Y-51884761D02*
X178955238Y-51884761D01*
X178955238Y-51884761D02*
X178764762Y-51789523D01*
X178764762Y-51789523D02*
X178669524Y-51599047D01*
X178669524Y-51599047D02*
X178669524Y-51408571D01*
X178669524Y-51408571D02*
X178764762Y-51218095D01*
X178764762Y-51218095D02*
X178955238Y-51122857D01*
X178955238Y-51122857D02*
X179431429Y-51122857D01*
X179431429Y-51122857D02*
X179621905Y-51027619D01*
X182631429Y-51884761D02*
X182631429Y-50837142D01*
X182631429Y-50837142D02*
X182536191Y-50646666D01*
X182536191Y-50646666D02*
X182345715Y-50551428D01*
X182345715Y-50551428D02*
X181964762Y-50551428D01*
X181964762Y-50551428D02*
X181774286Y-50646666D01*
X182631429Y-51789523D02*
X182440953Y-51884761D01*
X182440953Y-51884761D02*
X181964762Y-51884761D01*
X181964762Y-51884761D02*
X181774286Y-51789523D01*
X181774286Y-51789523D02*
X181679048Y-51599047D01*
X181679048Y-51599047D02*
X181679048Y-51408571D01*
X181679048Y-51408571D02*
X181774286Y-51218095D01*
X181774286Y-51218095D02*
X181964762Y-51122857D01*
X181964762Y-51122857D02*
X182440953Y-51122857D01*
X182440953Y-51122857D02*
X182631429Y-51027619D01*
X185640953Y-51884761D02*
X185640953Y-50837142D01*
X185640953Y-50837142D02*
X185545715Y-50646666D01*
X185545715Y-50646666D02*
X185355239Y-50551428D01*
X185355239Y-50551428D02*
X184974286Y-50551428D01*
X184974286Y-50551428D02*
X184783810Y-50646666D01*
X185640953Y-51789523D02*
X185450477Y-51884761D01*
X185450477Y-51884761D02*
X184974286Y-51884761D01*
X184974286Y-51884761D02*
X184783810Y-51789523D01*
X184783810Y-51789523D02*
X184688572Y-51599047D01*
X184688572Y-51599047D02*
X184688572Y-51408571D01*
X184688572Y-51408571D02*
X184783810Y-51218095D01*
X184783810Y-51218095D02*
X184974286Y-51122857D01*
X184974286Y-51122857D02*
X185450477Y-51122857D01*
X185450477Y-51122857D02*
X185640953Y-51027619D01*
X186593334Y-51884761D02*
X186593334Y-50551428D01*
X186593334Y-50741904D02*
X186688572Y-50646666D01*
X186688572Y-50646666D02*
X186879048Y-50551428D01*
X186879048Y-50551428D02*
X187164763Y-50551428D01*
X187164763Y-50551428D02*
X187355239Y-50646666D01*
X187355239Y-50646666D02*
X187450477Y-50837142D01*
X187450477Y-50837142D02*
X187450477Y-51884761D01*
X187450477Y-50837142D02*
X187545715Y-50646666D01*
X187545715Y-50646666D02*
X187736191Y-50551428D01*
X187736191Y-50551428D02*
X188021905Y-50551428D01*
X188021905Y-50551428D02*
X188212382Y-50646666D01*
X188212382Y-50646666D02*
X188307620Y-50837142D01*
X188307620Y-50837142D02*
X188307620Y-51884761D01*
X189260001Y-50551428D02*
X189260001Y-52551428D01*
X189260001Y-50646666D02*
X189450477Y-50551428D01*
X189450477Y-50551428D02*
X189831430Y-50551428D01*
X189831430Y-50551428D02*
X190021906Y-50646666D01*
X190021906Y-50646666D02*
X190117144Y-50741904D01*
X190117144Y-50741904D02*
X190212382Y-50932380D01*
X190212382Y-50932380D02*
X190212382Y-51503809D01*
X190212382Y-51503809D02*
X190117144Y-51694285D01*
X190117144Y-51694285D02*
X190021906Y-51789523D01*
X190021906Y-51789523D02*
X189831430Y-51884761D01*
X189831430Y-51884761D02*
X189450477Y-51884761D01*
X189450477Y-51884761D02*
X189260001Y-51789523D01*
X191355239Y-51884761D02*
X191164763Y-51789523D01*
X191164763Y-51789523D02*
X191069525Y-51599047D01*
X191069525Y-51599047D02*
X191069525Y-49884761D01*
X192117144Y-51884761D02*
X192117144Y-50551428D01*
X192117144Y-49884761D02*
X192021906Y-49980000D01*
X192021906Y-49980000D02*
X192117144Y-50075238D01*
X192117144Y-50075238D02*
X192212382Y-49980000D01*
X192212382Y-49980000D02*
X192117144Y-49884761D01*
X192117144Y-49884761D02*
X192117144Y-50075238D01*
X192783811Y-50551428D02*
X193545715Y-50551428D01*
X193069525Y-51884761D02*
X193069525Y-50170476D01*
X193069525Y-50170476D02*
X193164763Y-49980000D01*
X193164763Y-49980000D02*
X193355239Y-49884761D01*
X193355239Y-49884761D02*
X193545715Y-49884761D01*
X194212382Y-51884761D02*
X194212382Y-50551428D01*
X194212382Y-49884761D02*
X194117144Y-49980000D01*
X194117144Y-49980000D02*
X194212382Y-50075238D01*
X194212382Y-50075238D02*
X194307620Y-49980000D01*
X194307620Y-49980000D02*
X194212382Y-49884761D01*
X194212382Y-49884761D02*
X194212382Y-50075238D01*
X196021906Y-51789523D02*
X195831430Y-51884761D01*
X195831430Y-51884761D02*
X195450477Y-51884761D01*
X195450477Y-51884761D02*
X195260001Y-51789523D01*
X195260001Y-51789523D02*
X195164763Y-51694285D01*
X195164763Y-51694285D02*
X195069525Y-51503809D01*
X195069525Y-51503809D02*
X195069525Y-50932380D01*
X195069525Y-50932380D02*
X195164763Y-50741904D01*
X195164763Y-50741904D02*
X195260001Y-50646666D01*
X195260001Y-50646666D02*
X195450477Y-50551428D01*
X195450477Y-50551428D02*
X195831430Y-50551428D01*
X195831430Y-50551428D02*
X196021906Y-50646666D01*
X197736192Y-51884761D02*
X197736192Y-50837142D01*
X197736192Y-50837142D02*
X197640954Y-50646666D01*
X197640954Y-50646666D02*
X197450478Y-50551428D01*
X197450478Y-50551428D02*
X197069525Y-50551428D01*
X197069525Y-50551428D02*
X196879049Y-50646666D01*
X197736192Y-51789523D02*
X197545716Y-51884761D01*
X197545716Y-51884761D02*
X197069525Y-51884761D01*
X197069525Y-51884761D02*
X196879049Y-51789523D01*
X196879049Y-51789523D02*
X196783811Y-51599047D01*
X196783811Y-51599047D02*
X196783811Y-51408571D01*
X196783811Y-51408571D02*
X196879049Y-51218095D01*
X196879049Y-51218095D02*
X197069525Y-51122857D01*
X197069525Y-51122857D02*
X197545716Y-51122857D01*
X197545716Y-51122857D02*
X197736192Y-51027619D01*
X198402859Y-50551428D02*
X199164763Y-50551428D01*
X198688573Y-49884761D02*
X198688573Y-51599047D01*
X198688573Y-51599047D02*
X198783811Y-51789523D01*
X198783811Y-51789523D02*
X198974287Y-51884761D01*
X198974287Y-51884761D02*
X199164763Y-51884761D01*
X200117144Y-51884761D02*
X199926668Y-51789523D01*
X199926668Y-51789523D02*
X199831430Y-51694285D01*
X199831430Y-51694285D02*
X199736192Y-51503809D01*
X199736192Y-51503809D02*
X199736192Y-50932380D01*
X199736192Y-50932380D02*
X199831430Y-50741904D01*
X199831430Y-50741904D02*
X199926668Y-50646666D01*
X199926668Y-50646666D02*
X200117144Y-50551428D01*
X200117144Y-50551428D02*
X200402859Y-50551428D01*
X200402859Y-50551428D02*
X200593335Y-50646666D01*
X200593335Y-50646666D02*
X200688573Y-50741904D01*
X200688573Y-50741904D02*
X200783811Y-50932380D01*
X200783811Y-50932380D02*
X200783811Y-51503809D01*
X200783811Y-51503809D02*
X200688573Y-51694285D01*
X200688573Y-51694285D02*
X200593335Y-51789523D01*
X200593335Y-51789523D02*
X200402859Y-51884761D01*
X200402859Y-51884761D02*
X200117144Y-51884761D01*
X201640954Y-51884761D02*
X201640954Y-50551428D01*
X201640954Y-50932380D02*
X201736192Y-50741904D01*
X201736192Y-50741904D02*
X201831430Y-50646666D01*
X201831430Y-50646666D02*
X202021906Y-50551428D01*
X202021906Y-50551428D02*
X202212383Y-50551428D01*
X203736192Y-50551428D02*
X203736192Y-51884761D01*
X202879049Y-50551428D02*
X202879049Y-51599047D01*
X202879049Y-51599047D02*
X202974287Y-51789523D01*
X202974287Y-51789523D02*
X203164763Y-51884761D01*
X203164763Y-51884761D02*
X203450478Y-51884761D01*
X203450478Y-51884761D02*
X203640954Y-51789523D01*
X203640954Y-51789523D02*
X203736192Y-51694285D01*
X204974287Y-51884761D02*
X204783811Y-51789523D01*
X204783811Y-51789523D02*
X204688573Y-51599047D01*
X204688573Y-51599047D02*
X204688573Y-49884761D01*
X206593335Y-50551428D02*
X206593335Y-51884761D01*
X205736192Y-50551428D02*
X205736192Y-51599047D01*
X205736192Y-51599047D02*
X205831430Y-51789523D01*
X205831430Y-51789523D02*
X206021906Y-51884761D01*
X206021906Y-51884761D02*
X206307621Y-51884761D01*
X206307621Y-51884761D02*
X206498097Y-51789523D01*
X206498097Y-51789523D02*
X206593335Y-51694285D01*
X207545716Y-51884761D02*
X207545716Y-50551428D01*
X207545716Y-49884761D02*
X207450478Y-49980000D01*
X207450478Y-49980000D02*
X207545716Y-50075238D01*
X207545716Y-50075238D02*
X207640954Y-49980000D01*
X207640954Y-49980000D02*
X207545716Y-49884761D01*
X207545716Y-49884761D02*
X207545716Y-50075238D01*
D11*
%TO.C,D1*%
X202461905Y-80527380D02*
X202461905Y-79527380D01*
X202461905Y-79527380D02*
X202700000Y-79527380D01*
X202700000Y-79527380D02*
X202842857Y-79575000D01*
X202842857Y-79575000D02*
X202938095Y-79670238D01*
X202938095Y-79670238D02*
X202985714Y-79765476D01*
X202985714Y-79765476D02*
X203033333Y-79955952D01*
X203033333Y-79955952D02*
X203033333Y-80098809D01*
X203033333Y-80098809D02*
X202985714Y-80289285D01*
X202985714Y-80289285D02*
X202938095Y-80384523D01*
X202938095Y-80384523D02*
X202842857Y-80479761D01*
X202842857Y-80479761D02*
X202700000Y-80527380D01*
X202700000Y-80527380D02*
X202461905Y-80527380D01*
X203985714Y-80527380D02*
X203414286Y-80527380D01*
X203700000Y-80527380D02*
X203700000Y-79527380D01*
X203700000Y-79527380D02*
X203604762Y-79670238D01*
X203604762Y-79670238D02*
X203509524Y-79765476D01*
X203509524Y-79765476D02*
X203414286Y-79813095D01*
%TO.C,TP4*%
X212098095Y-87457380D02*
X212669523Y-87457380D01*
X212383809Y-88457380D02*
X212383809Y-87457380D01*
X213002857Y-88457380D02*
X213002857Y-87457380D01*
X213002857Y-87457380D02*
X213383809Y-87457380D01*
X213383809Y-87457380D02*
X213479047Y-87505000D01*
X213479047Y-87505000D02*
X213526666Y-87552619D01*
X213526666Y-87552619D02*
X213574285Y-87647857D01*
X213574285Y-87647857D02*
X213574285Y-87790714D01*
X213574285Y-87790714D02*
X213526666Y-87885952D01*
X213526666Y-87885952D02*
X213479047Y-87933571D01*
X213479047Y-87933571D02*
X213383809Y-87981190D01*
X213383809Y-87981190D02*
X213002857Y-87981190D01*
X214431428Y-87790714D02*
X214431428Y-88457380D01*
X214193333Y-87409761D02*
X213955238Y-88124047D01*
X213955238Y-88124047D02*
X214574285Y-88124047D01*
%TO.C,TP3*%
X161298095Y-98887380D02*
X161869523Y-98887380D01*
X161583809Y-99887380D02*
X161583809Y-98887380D01*
X162202857Y-99887380D02*
X162202857Y-98887380D01*
X162202857Y-98887380D02*
X162583809Y-98887380D01*
X162583809Y-98887380D02*
X162679047Y-98935000D01*
X162679047Y-98935000D02*
X162726666Y-98982619D01*
X162726666Y-98982619D02*
X162774285Y-99077857D01*
X162774285Y-99077857D02*
X162774285Y-99220714D01*
X162774285Y-99220714D02*
X162726666Y-99315952D01*
X162726666Y-99315952D02*
X162679047Y-99363571D01*
X162679047Y-99363571D02*
X162583809Y-99411190D01*
X162583809Y-99411190D02*
X162202857Y-99411190D01*
X163107619Y-98887380D02*
X163726666Y-98887380D01*
X163726666Y-98887380D02*
X163393333Y-99268333D01*
X163393333Y-99268333D02*
X163536190Y-99268333D01*
X163536190Y-99268333D02*
X163631428Y-99315952D01*
X163631428Y-99315952D02*
X163679047Y-99363571D01*
X163679047Y-99363571D02*
X163726666Y-99458809D01*
X163726666Y-99458809D02*
X163726666Y-99696904D01*
X163726666Y-99696904D02*
X163679047Y-99792142D01*
X163679047Y-99792142D02*
X163631428Y-99839761D01*
X163631428Y-99839761D02*
X163536190Y-99887380D01*
X163536190Y-99887380D02*
X163250476Y-99887380D01*
X163250476Y-99887380D02*
X163155238Y-99839761D01*
X163155238Y-99839761D02*
X163107619Y-99792142D01*
%TO.C,TP2*%
X161298095Y-74757380D02*
X161869523Y-74757380D01*
X161583809Y-75757380D02*
X161583809Y-74757380D01*
X162202857Y-75757380D02*
X162202857Y-74757380D01*
X162202857Y-74757380D02*
X162583809Y-74757380D01*
X162583809Y-74757380D02*
X162679047Y-74805000D01*
X162679047Y-74805000D02*
X162726666Y-74852619D01*
X162726666Y-74852619D02*
X162774285Y-74947857D01*
X162774285Y-74947857D02*
X162774285Y-75090714D01*
X162774285Y-75090714D02*
X162726666Y-75185952D01*
X162726666Y-75185952D02*
X162679047Y-75233571D01*
X162679047Y-75233571D02*
X162583809Y-75281190D01*
X162583809Y-75281190D02*
X162202857Y-75281190D01*
X163155238Y-74852619D02*
X163202857Y-74805000D01*
X163202857Y-74805000D02*
X163298095Y-74757380D01*
X163298095Y-74757380D02*
X163536190Y-74757380D01*
X163536190Y-74757380D02*
X163631428Y-74805000D01*
X163631428Y-74805000D02*
X163679047Y-74852619D01*
X163679047Y-74852619D02*
X163726666Y-74947857D01*
X163726666Y-74947857D02*
X163726666Y-75043095D01*
X163726666Y-75043095D02*
X163679047Y-75185952D01*
X163679047Y-75185952D02*
X163107619Y-75757380D01*
X163107619Y-75757380D02*
X163726666Y-75757380D01*
%TO.C,TP1*%
X109228095Y-67137380D02*
X109799523Y-67137380D01*
X109513809Y-68137380D02*
X109513809Y-67137380D01*
X110132857Y-68137380D02*
X110132857Y-67137380D01*
X110132857Y-67137380D02*
X110513809Y-67137380D01*
X110513809Y-67137380D02*
X110609047Y-67185000D01*
X110609047Y-67185000D02*
X110656666Y-67232619D01*
X110656666Y-67232619D02*
X110704285Y-67327857D01*
X110704285Y-67327857D02*
X110704285Y-67470714D01*
X110704285Y-67470714D02*
X110656666Y-67565952D01*
X110656666Y-67565952D02*
X110609047Y-67613571D01*
X110609047Y-67613571D02*
X110513809Y-67661190D01*
X110513809Y-67661190D02*
X110132857Y-67661190D01*
X111656666Y-68137380D02*
X111085238Y-68137380D01*
X111370952Y-68137380D02*
X111370952Y-67137380D01*
X111370952Y-67137380D02*
X111275714Y-67280238D01*
X111275714Y-67280238D02*
X111180476Y-67375476D01*
X111180476Y-67375476D02*
X111085238Y-67423095D01*
%TO.C,C11*%
X134832857Y-93087857D02*
X134880476Y-93040238D01*
X134880476Y-93040238D02*
X135023333Y-92992619D01*
X135023333Y-92992619D02*
X135118571Y-92992619D01*
X135118571Y-92992619D02*
X135261428Y-93040238D01*
X135261428Y-93040238D02*
X135356666Y-93135476D01*
X135356666Y-93135476D02*
X135404285Y-93230714D01*
X135404285Y-93230714D02*
X135451904Y-93421190D01*
X135451904Y-93421190D02*
X135451904Y-93564047D01*
X135451904Y-93564047D02*
X135404285Y-93754523D01*
X135404285Y-93754523D02*
X135356666Y-93849761D01*
X135356666Y-93849761D02*
X135261428Y-93945000D01*
X135261428Y-93945000D02*
X135118571Y-93992619D01*
X135118571Y-93992619D02*
X135023333Y-93992619D01*
X135023333Y-93992619D02*
X134880476Y-93945000D01*
X134880476Y-93945000D02*
X134832857Y-93897380D01*
X133880476Y-92992619D02*
X134451904Y-92992619D01*
X134166190Y-92992619D02*
X134166190Y-93992619D01*
X134166190Y-93992619D02*
X134261428Y-93849761D01*
X134261428Y-93849761D02*
X134356666Y-93754523D01*
X134356666Y-93754523D02*
X134451904Y-93706904D01*
X132928095Y-92992619D02*
X133499523Y-92992619D01*
X133213809Y-92992619D02*
X133213809Y-93992619D01*
X133213809Y-93992619D02*
X133309047Y-93849761D01*
X133309047Y-93849761D02*
X133404285Y-93754523D01*
X133404285Y-93754523D02*
X133499523Y-93706904D01*
%TO.C,D2*%
X210747380Y-57411904D02*
X209747380Y-57411904D01*
X210747380Y-56840476D02*
X210175952Y-57269047D01*
X209747380Y-56840476D02*
X210318809Y-57411904D01*
D12*
%TO.C,D1*%
X205760000Y-77745000D02*
X205760000Y-74655000D01*
X205760000Y-74655170D02*
G75*
G03*
X200210000Y-76200462I-2560000J-1544830D01*
G01*
X200210001Y-76199538D02*
G75*
G03*
X205759999Y-77744830I2989999J-462D01*
G01*
X205700000Y-76200000D02*
G75*
G03*
X205700000Y-76200000I-2500000J0D01*
G01*
D11*
%TO.C,TP4*%
X215110000Y-85090000D02*
G75*
G03*
X215110000Y-85090000I-1750000J0D01*
G01*
%TO.C,TP3*%
X164310000Y-96520000D02*
G75*
G03*
X164310000Y-96520000I-1750000J0D01*
G01*
%TO.C,TP2*%
X164310000Y-72390000D02*
G75*
G03*
X164310000Y-72390000I-1750000J0D01*
G01*
%TO.C,TP1*%
X112240000Y-64770000D02*
G75*
G03*
X112240000Y-64770000I-1750000J0D01*
G01*
D13*
%TO.C,C11*%
X136690000Y-92110000D02*
X109690000Y-92110000D01*
X109690000Y-92110000D02*
X109690000Y-80610000D01*
X109690000Y-80610000D02*
X136690000Y-80610000D01*
X136690000Y-80610000D02*
X136690000Y-92110000D01*
D12*
%TO.C,J5*%
X217470000Y-112000000D02*
X217506000Y-112035000D01*
X221345000Y-120630000D02*
X221345000Y-110510000D01*
X213484000Y-120630000D02*
X223405000Y-120630000D01*
X219768000Y-114297000D02*
X219814000Y-114344000D01*
X213484000Y-120630000D02*
X213484000Y-110510000D01*
X213484000Y-110510000D02*
X223405000Y-110510000D01*
X223405000Y-120630000D02*
X223405000Y-110510000D01*
X222905000Y-120870000D02*
X223645000Y-120870000D01*
X216444000Y-120630000D02*
X216444000Y-110510000D01*
X222845000Y-120630000D02*
X222845000Y-110510000D01*
X217676000Y-111795000D02*
X217722000Y-111842000D01*
X219984000Y-114104000D02*
X220019000Y-114139000D01*
X223645000Y-120870000D02*
X223645000Y-120370000D01*
X220424999Y-118070000D02*
G75*
G03*
X220279755Y-117386682I-1679999J0D01*
G01*
X219429000Y-116535000D02*
G75*
G03*
X218061958Y-116534574I-684000J-1535000D01*
G01*
X220279999Y-118754000D02*
G75*
G03*
X220425252Y-118041195I-1535000J683999D01*
G01*
X218061001Y-119604999D02*
G75*
G03*
X219428042Y-119605426I684000J1534992D01*
G01*
X217210001Y-117386001D02*
G75*
G03*
X217209574Y-118753042I1534992J-684000D01*
G01*
X220425000Y-113070000D02*
G75*
G03*
X220425000Y-113070000I-1680000J0D01*
G01*
%TO.C,J2*%
X173915000Y-71060000D02*
X173915000Y-73720000D01*
X179055000Y-73720000D02*
X173915000Y-73720000D01*
X179055000Y-71060000D02*
X173915000Y-71060000D01*
X181655000Y-71060000D02*
X181655000Y-72390000D01*
X180325000Y-71060000D02*
X181655000Y-71060000D01*
X179055000Y-71060000D02*
X179055000Y-73720000D01*
%TO.C,D2*%
X209750000Y-59510000D02*
X206810000Y-59510000D01*
X208280000Y-58490000D02*
X208280000Y-59510000D01*
X209750000Y-60530000D02*
X206810000Y-60530000D01*
X209750000Y-60410000D02*
X206810000Y-60410000D01*
X206810000Y-59510000D02*
X206810000Y-64950000D01*
X209750000Y-60290000D02*
X206810000Y-60290000D01*
X206810000Y-64950000D02*
X209750000Y-64950000D01*
X209750000Y-64950000D02*
X209750000Y-59510000D01*
X208280000Y-65970000D02*
X208280000Y-64950000D01*
%TO.C,C12*%
X125649000Y-75550000D02*
X125649000Y-71770000D01*
X128170000Y-76888000D02*
X128170000Y-70432000D01*
X127690000Y-76835000D02*
X127690000Y-74700000D01*
X126649000Y-76450000D02*
X126649000Y-74700000D01*
X127009000Y-76630000D02*
X127009000Y-74700000D01*
X125329000Y-75010000D02*
X125329000Y-72310000D01*
X127690000Y-72620000D02*
X127690000Y-70485000D01*
X125249000Y-74825000D02*
X125249000Y-72495000D01*
X126729000Y-72620000D02*
X126729000Y-70826000D01*
X127089000Y-72620000D02*
X127089000Y-70658000D01*
X125569000Y-75436000D02*
X125569000Y-71884000D01*
X125889000Y-75842000D02*
X125889000Y-71478000D01*
X126849000Y-72620000D02*
X126849000Y-70764000D01*
X125609000Y-75494000D02*
X125609000Y-71826000D01*
X126449000Y-76324000D02*
X126449000Y-74700000D01*
X128290000Y-76890000D02*
X128290000Y-70430000D01*
X125049000Y-74062000D02*
X125049000Y-73258000D01*
X128050000Y-72620000D02*
X128050000Y-70438000D01*
X125729000Y-75655000D02*
X125729000Y-71665000D01*
X126489000Y-76350000D02*
X126489000Y-74700000D01*
X128250000Y-76890000D02*
X128250000Y-70430000D01*
X127329000Y-76746000D02*
X127329000Y-74700000D01*
X127810000Y-76855000D02*
X127810000Y-74700000D01*
X128010000Y-72620000D02*
X128010000Y-70442000D01*
X127529000Y-72620000D02*
X127529000Y-70519000D01*
X127650000Y-76827000D02*
X127650000Y-74700000D01*
X127850000Y-76861000D02*
X127850000Y-74700000D01*
X125369000Y-75092000D02*
X125369000Y-72228000D01*
X128210000Y-76890000D02*
X128210000Y-70430000D01*
X126689000Y-72620000D02*
X126689000Y-70848000D01*
X126289000Y-76208000D02*
X126289000Y-74700000D01*
X126049000Y-72620000D02*
X126049000Y-71317000D01*
X125289000Y-74922000D02*
X125289000Y-72398000D01*
X127409000Y-72620000D02*
X127409000Y-70550000D01*
X127770000Y-76849000D02*
X127770000Y-74700000D01*
X128050000Y-76882000D02*
X128050000Y-74700000D01*
X125849000Y-75797000D02*
X125849000Y-71523000D01*
X128130000Y-76887000D02*
X128130000Y-70433000D01*
X126529000Y-76376000D02*
X126529000Y-74700000D01*
X125689000Y-75604000D02*
X125689000Y-71716000D01*
X126369000Y-72620000D02*
X126369000Y-71053000D01*
X126609000Y-76426000D02*
X126609000Y-74700000D01*
X126729000Y-76494000D02*
X126729000Y-74700000D01*
X127129000Y-72620000D02*
X127129000Y-70642000D01*
X127169000Y-72620000D02*
X127169000Y-70627000D01*
X126129000Y-76076000D02*
X126129000Y-74700000D01*
X126369000Y-76267000D02*
X126369000Y-74700000D01*
X127730000Y-72620000D02*
X127730000Y-70478000D01*
X126689000Y-76472000D02*
X126689000Y-74700000D01*
X125809000Y-75752000D02*
X125809000Y-71568000D01*
X127089000Y-76662000D02*
X127089000Y-74700000D01*
X126329000Y-72620000D02*
X126329000Y-71082000D01*
X126049000Y-76003000D02*
X126049000Y-74700000D01*
X126489000Y-72620000D02*
X126489000Y-70970000D01*
X126569000Y-76402000D02*
X126569000Y-74700000D01*
X127730000Y-76842000D02*
X127730000Y-74700000D01*
X127970000Y-72620000D02*
X127970000Y-70445000D01*
X127289000Y-72620000D02*
X127289000Y-70586000D01*
X126769000Y-76516000D02*
X126769000Y-74700000D01*
X127890000Y-72620000D02*
X127890000Y-70454000D01*
X125769000Y-75704000D02*
X125769000Y-71616000D01*
X128090000Y-76884000D02*
X128090000Y-70436000D01*
X125529000Y-75374000D02*
X125529000Y-71946000D01*
X126169000Y-72620000D02*
X126169000Y-71210000D01*
X126329000Y-76238000D02*
X126329000Y-74700000D01*
X125169000Y-74600000D02*
X125169000Y-72720000D01*
X127569000Y-72620000D02*
X127569000Y-70510000D01*
X127650000Y-72620000D02*
X127650000Y-70493000D01*
X126809000Y-72620000D02*
X126809000Y-70784000D01*
X126089000Y-72620000D02*
X126089000Y-71280000D01*
X126169000Y-76110000D02*
X126169000Y-74700000D01*
X127449000Y-76781000D02*
X127449000Y-74700000D01*
X127610000Y-72620000D02*
X127610000Y-70501000D01*
X127610000Y-76819000D02*
X127610000Y-74700000D01*
X127489000Y-72620000D02*
X127489000Y-70529000D01*
X127890000Y-76866000D02*
X127890000Y-74700000D01*
X127009000Y-72620000D02*
X127009000Y-70690000D01*
X127049000Y-72620000D02*
X127049000Y-70674000D01*
X126849000Y-76556000D02*
X126849000Y-74700000D01*
X126569000Y-72620000D02*
X126569000Y-70918000D01*
X127369000Y-76758000D02*
X127369000Y-74700000D01*
X126249000Y-76176000D02*
X126249000Y-74700000D01*
X127930000Y-72620000D02*
X127930000Y-70449000D01*
X126809000Y-76536000D02*
X126809000Y-74700000D01*
X125489000Y-75310000D02*
X125489000Y-72010000D01*
X127289000Y-76734000D02*
X127289000Y-74700000D01*
X126529000Y-72620000D02*
X126529000Y-70944000D01*
X126969000Y-76612000D02*
X126969000Y-74700000D01*
X125449000Y-75241000D02*
X125449000Y-72079000D01*
X127930000Y-76871000D02*
X127930000Y-74700000D01*
X125129000Y-74462000D02*
X125129000Y-72858000D01*
X126289000Y-72620000D02*
X126289000Y-71112000D01*
X127489000Y-76791000D02*
X127489000Y-74700000D01*
X126209000Y-76144000D02*
X126209000Y-74700000D01*
X127209000Y-72620000D02*
X127209000Y-70613000D01*
X131475241Y-75814000D02*
X131475241Y-75184000D01*
X126409000Y-76296000D02*
X126409000Y-74700000D01*
X127569000Y-76810000D02*
X127569000Y-74700000D01*
X127810000Y-72620000D02*
X127810000Y-70465000D01*
X127850000Y-72620000D02*
X127850000Y-70459000D01*
X126449000Y-72620000D02*
X126449000Y-70996000D01*
X126009000Y-72620000D02*
X126009000Y-71355000D01*
X131790241Y-75499000D02*
X131160241Y-75499000D01*
X126889000Y-76576000D02*
X126889000Y-74700000D01*
X126769000Y-72620000D02*
X126769000Y-70804000D01*
X125969000Y-75925000D02*
X125969000Y-71395000D01*
X125929000Y-75884000D02*
X125929000Y-71436000D01*
X127249000Y-72620000D02*
X127249000Y-70599000D01*
X127169000Y-76693000D02*
X127169000Y-74700000D01*
X127209000Y-76707000D02*
X127209000Y-74700000D01*
X127049000Y-76646000D02*
X127049000Y-74700000D01*
X125209000Y-74719000D02*
X125209000Y-72601000D01*
X126609000Y-72620000D02*
X126609000Y-70894000D01*
X127329000Y-72620000D02*
X127329000Y-70574000D01*
X126889000Y-72620000D02*
X126889000Y-70744000D01*
X127409000Y-76770000D02*
X127409000Y-74700000D01*
X127770000Y-72620000D02*
X127770000Y-70471000D01*
X125089000Y-74293000D02*
X125089000Y-73027000D01*
X127129000Y-76678000D02*
X127129000Y-74700000D01*
X126209000Y-72620000D02*
X126209000Y-71176000D01*
X126649000Y-72620000D02*
X126649000Y-70870000D01*
X125409000Y-75169000D02*
X125409000Y-72151000D01*
X126969000Y-72620000D02*
X126969000Y-70708000D01*
X127970000Y-76875000D02*
X127970000Y-74700000D01*
X126929000Y-72620000D02*
X126929000Y-70726000D01*
X126129000Y-72620000D02*
X126129000Y-71244000D01*
X127249000Y-76721000D02*
X127249000Y-74700000D01*
X126929000Y-76594000D02*
X126929000Y-74700000D01*
X127529000Y-76801000D02*
X127529000Y-74700000D01*
X127449000Y-72620000D02*
X127449000Y-70539000D01*
X126009000Y-75965000D02*
X126009000Y-74700000D01*
X126249000Y-72620000D02*
X126249000Y-71144000D01*
X127369000Y-72620000D02*
X127369000Y-70562000D01*
X128010000Y-76878000D02*
X128010000Y-74700000D01*
X126089000Y-76040000D02*
X126089000Y-74700000D01*
X126409000Y-72620000D02*
X126409000Y-71024000D01*
X131560000Y-73660000D02*
G75*
G03*
X131560000Y-73660000I-3270000J0D01*
G01*
%TO.C,R6*%
X203300000Y-65500000D02*
X203300000Y-58960000D01*
X203300000Y-58960000D02*
X200560000Y-58960000D01*
X201930000Y-66270000D02*
X201930000Y-65500000D01*
X200560000Y-58960000D02*
X200560000Y-65500000D01*
X200560000Y-65500000D02*
X203300000Y-65500000D01*
X201930000Y-58190000D02*
X201930000Y-58960000D01*
%TO.C,J4*%
X223405000Y-64750000D02*
X223405000Y-54630000D01*
X222845000Y-64750000D02*
X222845000Y-54630000D01*
X219768000Y-58417000D02*
X219814000Y-58464000D01*
X221345000Y-64750000D02*
X221345000Y-54630000D01*
X223645000Y-64990000D02*
X223645000Y-64490000D01*
X213484000Y-64750000D02*
X223405000Y-64750000D01*
X216444000Y-64750000D02*
X216444000Y-54630000D01*
X219984000Y-58224000D02*
X220019000Y-58259000D01*
X217470000Y-56120000D02*
X217506000Y-56155000D01*
X213484000Y-64750000D02*
X213484000Y-54630000D01*
X217676000Y-55915000D02*
X217722000Y-55962000D01*
X213484000Y-54630000D02*
X223405000Y-54630000D01*
X222905000Y-64990000D02*
X223645000Y-64990000D01*
X220424999Y-62190000D02*
G75*
G03*
X220279755Y-61506682I-1679999J0D01*
G01*
X217210001Y-61506001D02*
G75*
G03*
X217209574Y-62873042I1534992J-684000D01*
G01*
X219429000Y-60655000D02*
G75*
G03*
X218061958Y-60654574I-684000J-1535000D01*
G01*
X218061001Y-63724999D02*
G75*
G03*
X219428042Y-63725426I684000J1534992D01*
G01*
X220279999Y-62874000D02*
G75*
G03*
X220425252Y-62161195I-1535000J683999D01*
G01*
X220425000Y-57190000D02*
G75*
G03*
X220425000Y-57190000I-1680000J0D01*
G01*
%TO.C,C31*%
X171930000Y-85755000D02*
X171930000Y-89960000D01*
X171930000Y-89960000D02*
X183670000Y-89960000D01*
X171930000Y-80220000D02*
X171930000Y-84425000D01*
X183670000Y-80220000D02*
X183670000Y-84425000D01*
X183670000Y-85755000D02*
X183670000Y-89960000D01*
X171930000Y-80220000D02*
X183670000Y-80220000D01*
%TO.C,J3*%
X166355000Y-108010000D02*
X161215000Y-108010000D01*
X161215000Y-105350000D02*
X161215000Y-108010000D01*
X166355000Y-105350000D02*
X166355000Y-108010000D01*
X167625000Y-105350000D02*
X168955000Y-105350000D01*
X166355000Y-105350000D02*
X161215000Y-105350000D01*
X168955000Y-105350000D02*
X168955000Y-106680000D01*
%TO.C,RL1*%
X196850000Y-101370000D02*
X196850000Y-102140000D01*
X196850000Y-109450000D02*
X196850000Y-108680000D01*
X195480000Y-102140000D02*
X195480000Y-108680000D01*
X198220000Y-108680000D02*
X198220000Y-102140000D01*
X198220000Y-102140000D02*
X195480000Y-102140000D01*
X195480000Y-108680000D02*
X198220000Y-108680000D01*
%TO.C,C212*%
X162890000Y-115660000D02*
X157150000Y-115660000D01*
X162890000Y-115660000D02*
X162890000Y-123100000D01*
X162890000Y-123100000D02*
X157150000Y-123100000D01*
X157150000Y-115660000D02*
X157150000Y-123100000D01*
%TO.C,R2*%
X140870000Y-104870000D02*
X143610000Y-104870000D01*
X143610000Y-98330000D02*
X140870000Y-98330000D01*
X142240000Y-97560000D02*
X142240000Y-98330000D01*
X140870000Y-98330000D02*
X140870000Y-104870000D01*
X142240000Y-105640000D02*
X142240000Y-104870000D01*
X143610000Y-104870000D02*
X143610000Y-98330000D01*
%TO.C,J1*%
X114285000Y-72330000D02*
X109145000Y-72330000D01*
X116885000Y-72330000D02*
X116885000Y-73660000D01*
X114285000Y-74990000D02*
X109145000Y-74990000D01*
X114285000Y-72330000D02*
X114285000Y-74990000D01*
X115555000Y-72330000D02*
X116885000Y-72330000D01*
X109145000Y-72330000D02*
X109145000Y-74990000D01*
%TO.C,R4*%
X152500000Y-114840000D02*
X149760000Y-114840000D01*
X149760000Y-114840000D02*
X149760000Y-121380000D01*
X152500000Y-121380000D02*
X152500000Y-114840000D01*
X151130000Y-114070000D02*
X151130000Y-114840000D01*
X149760000Y-121380000D02*
X152500000Y-121380000D01*
X151130000Y-122150000D02*
X151130000Y-121380000D01*
%TO.C,C22*%
X183046000Y-109351000D02*
X180110000Y-109351000D01*
X183149000Y-108550000D02*
X174991000Y-108550000D01*
X183150000Y-108470000D02*
X174990000Y-108470000D01*
X178030000Y-111111000D02*
X175980000Y-111111000D01*
X182995000Y-109551000D02*
X180110000Y-109551000D01*
X183141000Y-108710000D02*
X174999000Y-108710000D01*
X180018000Y-112431000D02*
X178122000Y-112431000D01*
X181470000Y-111751000D02*
X176670000Y-111751000D01*
X179603000Y-112511000D02*
X178537000Y-112511000D01*
X183147000Y-108590000D02*
X174993000Y-108590000D01*
X181977000Y-111311000D02*
X176163000Y-111311000D01*
X178030000Y-109671000D02*
X175181000Y-109671000D01*
X178030000Y-110431000D02*
X175508000Y-110431000D01*
X182792000Y-110111000D02*
X180110000Y-110111000D01*
X182774000Y-110151000D02*
X180110000Y-110151000D01*
X182756000Y-110191000D02*
X180110000Y-110191000D01*
X182891000Y-109871000D02*
X180110000Y-109871000D01*
X178030000Y-110671000D02*
X175652000Y-110671000D01*
X182125000Y-111151000D02*
X180110000Y-111151000D01*
X183112000Y-108990000D02*
X175028000Y-108990000D01*
X182226000Y-111031000D02*
X180110000Y-111031000D01*
X183080000Y-109191000D02*
X180110000Y-109191000D01*
X178030000Y-109391000D02*
X175103000Y-109391000D01*
X181626000Y-111631000D02*
X176514000Y-111631000D01*
X183127000Y-108870000D02*
X175013000Y-108870000D01*
X178030000Y-109631000D02*
X175168000Y-109631000D01*
X182350000Y-110871000D02*
X180110000Y-110871000D01*
X183094000Y-109110000D02*
X175046000Y-109110000D01*
X178030000Y-110271000D02*
X175423000Y-110271000D01*
X180523000Y-112271000D02*
X177617000Y-112271000D01*
X178030000Y-110991000D02*
X175881000Y-110991000D01*
X182259000Y-110991000D02*
X180110000Y-110991000D01*
X182920000Y-109791000D02*
X180110000Y-109791000D01*
X178030000Y-109471000D02*
X175123000Y-109471000D01*
X182984000Y-109591000D02*
X180110000Y-109591000D01*
X180622000Y-112231000D02*
X177518000Y-112231000D01*
X180960000Y-112071000D02*
X177180000Y-112071000D01*
X182563000Y-110551000D02*
X180110000Y-110551000D01*
X182160000Y-111111000D02*
X180110000Y-111111000D01*
X183135000Y-108790000D02*
X175005000Y-108790000D01*
X178030000Y-110391000D02*
X175486000Y-110391000D01*
X178030000Y-110351000D02*
X175464000Y-110351000D01*
X182860000Y-109951000D02*
X180110000Y-109951000D01*
X181172000Y-111951000D02*
X176968000Y-111951000D01*
X182194000Y-111071000D02*
X180110000Y-111071000D01*
X178030000Y-110911000D02*
X175820000Y-110911000D01*
X182717000Y-110271000D02*
X180110000Y-110271000D01*
X178030000Y-110871000D02*
X175790000Y-110871000D01*
X183122000Y-108910000D02*
X175018000Y-108910000D01*
X178030000Y-109511000D02*
X175134000Y-109511000D01*
X182933000Y-109751000D02*
X180110000Y-109751000D01*
X183100000Y-109070000D02*
X175040000Y-109070000D01*
X178030000Y-111031000D02*
X175914000Y-111031000D01*
X182844000Y-109991000D02*
X180110000Y-109991000D01*
X183006000Y-109511000D02*
X180110000Y-109511000D01*
X181674000Y-111591000D02*
X176466000Y-111591000D01*
X183150000Y-108510000D02*
X174990000Y-108510000D01*
X181357000Y-111831000D02*
X176783000Y-111831000D01*
X178030000Y-109951000D02*
X175280000Y-109951000D01*
X181767000Y-111511000D02*
X176373000Y-111511000D01*
X183131000Y-108830000D02*
X175009000Y-108830000D01*
X178030000Y-110591000D02*
X175601000Y-110591000D01*
X178030000Y-109591000D02*
X175156000Y-109591000D01*
X183138000Y-108750000D02*
X175002000Y-108750000D01*
X183037000Y-109391000D02*
X180110000Y-109391000D01*
X178030000Y-109231000D02*
X175068000Y-109231000D01*
X181854000Y-111431000D02*
X176286000Y-111431000D01*
X182810000Y-110071000D02*
X180110000Y-110071000D01*
X182736000Y-110231000D02*
X180110000Y-110231000D01*
X182514000Y-110631000D02*
X180110000Y-110631000D01*
X182875000Y-109911000D02*
X180110000Y-109911000D01*
X183017000Y-109471000D02*
X180110000Y-109471000D01*
X181937000Y-111351000D02*
X176203000Y-111351000D01*
X178030000Y-109871000D02*
X175249000Y-109871000D01*
X178030000Y-110951000D02*
X175850000Y-110951000D01*
X182947000Y-109711000D02*
X180110000Y-109711000D01*
X178030000Y-110231000D02*
X175404000Y-110231000D01*
X183027000Y-109431000D02*
X180110000Y-109431000D01*
X183150000Y-108430000D02*
X174990000Y-108430000D01*
X178030000Y-109151000D02*
X175053000Y-109151000D01*
X178030000Y-110751000D02*
X175705000Y-110751000D01*
X178030000Y-110191000D02*
X175384000Y-110191000D01*
X183055000Y-109311000D02*
X180110000Y-109311000D01*
X182488000Y-110671000D02*
X180110000Y-110671000D01*
X181104000Y-111991000D02*
X177036000Y-111991000D01*
X178030000Y-109351000D02*
X175094000Y-109351000D01*
X178030000Y-109311000D02*
X175085000Y-109311000D01*
X181575000Y-111671000D02*
X176565000Y-111671000D01*
X182539000Y-110591000D02*
X180110000Y-110591000D01*
X182972000Y-109631000D02*
X180110000Y-109631000D01*
X182053000Y-111231000D02*
X176087000Y-111231000D01*
X178030000Y-110511000D02*
X175553000Y-110511000D01*
X182959000Y-109671000D02*
X180110000Y-109671000D01*
X180168000Y-112391000D02*
X177972000Y-112391000D01*
X178030000Y-110791000D02*
X175732000Y-110791000D01*
X182632000Y-110431000D02*
X180110000Y-110431000D01*
X178030000Y-109751000D02*
X175207000Y-109751000D01*
X178030000Y-110711000D02*
X175678000Y-110711000D01*
X178030000Y-109791000D02*
X175220000Y-109791000D01*
X181896000Y-111391000D02*
X176244000Y-111391000D01*
X182379000Y-110831000D02*
X180110000Y-110831000D01*
X180715000Y-112191000D02*
X177425000Y-112191000D01*
X181524000Y-111711000D02*
X176616000Y-111711000D01*
X182827000Y-110031000D02*
X180110000Y-110031000D01*
X178030000Y-109271000D02*
X175076000Y-109271000D01*
X179838000Y-112471000D02*
X178302000Y-112471000D01*
X181721000Y-111551000D02*
X176419000Y-111551000D01*
X183144000Y-108670000D02*
X174996000Y-108670000D01*
X180801000Y-112151000D02*
X177339000Y-112151000D01*
X178030000Y-110031000D02*
X175313000Y-110031000D01*
X183087000Y-109151000D02*
X180110000Y-109151000D01*
X182905000Y-109831000D02*
X180110000Y-109831000D01*
X178030000Y-111071000D02*
X175946000Y-111071000D01*
X182676000Y-110351000D02*
X180110000Y-110351000D01*
X180883000Y-112111000D02*
X177257000Y-112111000D01*
X178030000Y-110551000D02*
X175577000Y-110551000D01*
X178030000Y-110071000D02*
X175330000Y-110071000D01*
X181034000Y-112031000D02*
X177106000Y-112031000D01*
X178030000Y-110311000D02*
X175443000Y-110311000D01*
X182320000Y-110911000D02*
X180110000Y-110911000D01*
X178030000Y-109711000D02*
X175193000Y-109711000D01*
X181811000Y-111471000D02*
X176329000Y-111471000D01*
X182015000Y-111271000D02*
X176125000Y-111271000D01*
X178030000Y-111151000D02*
X176015000Y-111151000D01*
X181385000Y-104020302D02*
X181385000Y-104820302D01*
X181298000Y-111871000D02*
X176842000Y-111871000D01*
X180299000Y-112351000D02*
X177841000Y-112351000D01*
X183118000Y-108950000D02*
X175022000Y-108950000D01*
X178030000Y-109551000D02*
X175145000Y-109551000D01*
X178030000Y-109831000D02*
X175235000Y-109831000D01*
X178030000Y-110151000D02*
X175366000Y-110151000D01*
X183146000Y-108630000D02*
X174994000Y-108630000D01*
X181415000Y-111791000D02*
X176725000Y-111791000D01*
X178030000Y-109431000D02*
X175113000Y-109431000D01*
X182435000Y-110751000D02*
X180110000Y-110751000D01*
X182290000Y-110951000D02*
X180110000Y-110951000D01*
X178030000Y-109191000D02*
X175060000Y-109191000D01*
X182610000Y-110471000D02*
X180110000Y-110471000D01*
X182654000Y-110391000D02*
X180110000Y-110391000D01*
X178030000Y-110631000D02*
X175626000Y-110631000D01*
X178030000Y-111191000D02*
X176051000Y-111191000D01*
X182697000Y-110311000D02*
X180110000Y-110311000D01*
X182408000Y-110791000D02*
X180110000Y-110791000D01*
X182462000Y-110711000D02*
X180110000Y-110711000D01*
X178030000Y-110111000D02*
X175348000Y-110111000D01*
X182587000Y-110511000D02*
X180110000Y-110511000D01*
X178030000Y-110831000D02*
X175761000Y-110831000D01*
X180416000Y-112311000D02*
X177724000Y-112311000D01*
X181785000Y-104420302D02*
X180985000Y-104420302D01*
X183107000Y-109030000D02*
X175033000Y-109030000D01*
X183072000Y-109231000D02*
X180110000Y-109231000D01*
X178030000Y-109911000D02*
X175265000Y-109911000D01*
X178030000Y-109991000D02*
X175296000Y-109991000D01*
X183064000Y-109271000D02*
X180110000Y-109271000D01*
X182089000Y-111191000D02*
X180110000Y-111191000D01*
X178030000Y-110471000D02*
X175530000Y-110471000D01*
X181236000Y-111911000D02*
X176904000Y-111911000D01*
X183190000Y-108430000D02*
G75*
G03*
X183190000Y-108430000I-4120000J0D01*
G01*
%TO.C,Q1*%
X147645552Y-88854499D02*
X148635501Y-89844448D01*
X148557719Y-87942331D02*
X147645552Y-88854499D01*
X148635501Y-89844448D02*
X149547669Y-88932281D01*
X149547456Y-88932150D02*
G75*
G03*
X148557719Y-87942331I1582544J2572150D01*
G01*
%TO.C,R3*%
X152500000Y-98330000D02*
X149760000Y-98330000D01*
X151130000Y-97560000D02*
X151130000Y-98330000D01*
X149760000Y-98330000D02*
X149760000Y-104870000D01*
X149760000Y-104870000D02*
X152500000Y-104870000D01*
X151130000Y-105640000D02*
X151130000Y-104870000D01*
X152500000Y-104870000D02*
X152500000Y-98330000D01*
%TO.C,R1*%
X142240000Y-66270000D02*
X142240000Y-65500000D01*
X143610000Y-65500000D02*
X143610000Y-58960000D01*
X142240000Y-58190000D02*
X142240000Y-58960000D01*
X140870000Y-65500000D02*
X143610000Y-65500000D01*
X140870000Y-58960000D02*
X140870000Y-65500000D01*
X143610000Y-58960000D02*
X140870000Y-58960000D01*
%TO.C,C32*%
X193120000Y-73390000D02*
G75*
G03*
X193120000Y-73390000I-2620000J0D01*
G01*
%TO.C,R5*%
X149760000Y-58960000D02*
X149760000Y-65500000D01*
X152500000Y-58960000D02*
X149760000Y-58960000D01*
X149760000Y-65500000D02*
X152500000Y-65500000D01*
X151130000Y-66270000D02*
X151130000Y-65500000D01*
X152500000Y-65500000D02*
X152500000Y-58960000D01*
X151130000Y-58190000D02*
X151130000Y-58960000D01*
%TO.C,C211*%
X171780000Y-115660000D02*
X171780000Y-123100000D01*
X166040000Y-115660000D02*
X166040000Y-123100000D01*
X171780000Y-123100000D02*
X166040000Y-123100000D01*
X171780000Y-115660000D02*
X166040000Y-115660000D01*
%TD*%
M02*
