%TF.GenerationSoftware,KiCad,Pcbnew,(7.0.0)*%
%TF.CreationDate,2023-03-04T17:35:51+02:00*%
%TF.ProjectId,Efectul cap de cuplaj si decuplare,45666563-7475-46c2-9063-617020646520,rev?*%
%TF.SameCoordinates,Original*%
%TF.FileFunction,Copper,L1,Top*%
%TF.FilePolarity,Positive*%
%FSLAX46Y46*%
G04 Gerber Fmt 4.6, Leading zero omitted, Abs format (unit mm)*
G04 Created by KiCad (PCBNEW (7.0.0)) date 2023-03-04 17:35:51*
%MOMM*%
%LPD*%
G01*
G04 APERTURE LIST*
%TA.AperFunction,ComponentPad*%
%ADD10R,1.800000X1.800000*%
%TD*%
%TA.AperFunction,ComponentPad*%
%ADD11C,1.800000*%
%TD*%
%TA.AperFunction,ComponentPad*%
%ADD12C,4.500000*%
%TD*%
%TA.AperFunction,ComponentPad*%
%ADD13C,2.800000*%
%TD*%
%TA.AperFunction,ComponentPad*%
%ADD14C,1.700000*%
%TD*%
%TA.AperFunction,ComponentPad*%
%ADD15R,2.600000X2.600000*%
%TD*%
%TA.AperFunction,ComponentPad*%
%ADD16C,2.600000*%
%TD*%
%TA.AperFunction,ComponentPad*%
%ADD17R,1.700000X1.700000*%
%TD*%
%TA.AperFunction,ComponentPad*%
%ADD18O,1.700000X1.700000*%
%TD*%
%TA.AperFunction,ComponentPad*%
%ADD19C,3.600000*%
%TD*%
%TA.AperFunction,ConnectorPad*%
%ADD20C,5.700000*%
%TD*%
%TA.AperFunction,ComponentPad*%
%ADD21R,2.200000X2.200000*%
%TD*%
%TA.AperFunction,ComponentPad*%
%ADD22O,2.200000X2.200000*%
%TD*%
%TA.AperFunction,ComponentPad*%
%ADD23R,1.600000X1.600000*%
%TD*%
%TA.AperFunction,ComponentPad*%
%ADD24C,1.600000*%
%TD*%
%TA.AperFunction,ComponentPad*%
%ADD25O,1.600000X1.600000*%
%TD*%
%TA.AperFunction,ComponentPad*%
%ADD26O,1.200000X1.600000*%
%TD*%
%TA.AperFunction,ComponentPad*%
%ADD27O,1.200000X1.200000*%
%TD*%
%TA.AperFunction,Conductor*%
%ADD28C,1.200000*%
%TD*%
%TA.AperFunction,Conductor*%
%ADD29C,0.600000*%
%TD*%
G04 APERTURE END LIST*
D10*
%TO.P,D1,1,K*%
%TO.N,GND*%
X204469999Y-76199999D03*
D11*
%TO.P,D1,2,A*%
%TO.N,Net-(D1-A)*%
X201930000Y-76200000D03*
%TD*%
D12*
%TO.P,TP8,1,1*%
%TO.N,GND*%
X179000000Y-127000000D03*
%TD*%
%TO.P,TP7,1,1*%
%TO.N,GND*%
X100330000Y-107750000D03*
%TD*%
%TO.P,TP6,1,1*%
%TO.N,GND*%
X125730000Y-127000000D03*
%TD*%
%TO.P,TP5,1,1*%
%TO.N,GND*%
X200660000Y-127000000D03*
%TD*%
D13*
%TO.P,TP4,1,1*%
%TO.N,Net-(C31-Pad2)*%
X213360000Y-85090000D03*
%TD*%
%TO.P,TP3,1,1*%
%TO.N,Net-(Q1-E)*%
X162560000Y-96520000D03*
%TD*%
%TO.P,TP2,1,1*%
%TO.N,Net-(J2-Pin_2)*%
X162560000Y-72390000D03*
%TD*%
%TO.P,TP1,1,1*%
%TO.N,IN*%
X110490000Y-64770000D03*
%TD*%
D12*
%TO.P,J6,1,Pin_1*%
%TO.N,IN*%
X100330000Y-86360000D03*
%TD*%
D14*
%TO.P,C11,1*%
%TO.N,Net-(Q1-B)*%
X135690000Y-86360000D03*
%TO.P,C11,2*%
%TO.N,IN*%
X110690000Y-86360000D03*
%TD*%
D15*
%TO.P,J5,1,Pin_1*%
%TO.N,GND*%
X218744999Y-118069999D03*
D16*
%TO.P,J5,2,Pin_2*%
X218745000Y-113070000D03*
%TD*%
D17*
%TO.P,J2,1,Pin_1*%
%TO.N,Net-(J2-Pin_1)*%
X180324999Y-72389999D03*
D18*
%TO.P,J2,2,Pin_2*%
%TO.N,Net-(J2-Pin_2)*%
X177784999Y-72389999D03*
%TO.P,J2,3,Pin_3*%
X175244999Y-72389999D03*
%TD*%
D19*
%TO.P,H4,1*%
%TO.N,N/C*%
X90830000Y-126240000D03*
D20*
X90830000Y-126240000D03*
%TD*%
D21*
%TO.P,D2,1,K*%
%TO.N,Net-(D2-K)*%
X208279999Y-57149999D03*
D22*
%TO.P,D2,2,A*%
%TO.N,GND*%
X208279999Y-67309999D03*
%TD*%
D23*
%TO.P,C12,1*%
%TO.N,Net-(Q1-B)*%
X129539999Y-73659999D03*
D24*
%TO.P,C12,2*%
%TO.N,Net-(J1-Pin_1)*%
X127040000Y-73660000D03*
%TD*%
%TO.P,R6,1*%
%TO.N,Net-(D2-K)*%
X201930000Y-57150000D03*
D25*
%TO.P,R6,2*%
%TO.N,Net-(D1-A)*%
X201929999Y-67309999D03*
%TD*%
D19*
%TO.P,H2,1*%
%TO.N,N/C*%
X90830000Y-49440000D03*
D20*
X90830000Y-49440000D03*
%TD*%
D15*
%TO.P,J4,1,Pin_1*%
%TO.N,Net-(D2-K)*%
X218744999Y-62189999D03*
D16*
%TO.P,J4,2,Pin_2*%
X218745000Y-57190000D03*
%TD*%
D24*
%TO.P,C31,1*%
%TO.N,Net-(J2-Pin_2)*%
X172800000Y-85090000D03*
%TO.P,C31,2*%
%TO.N,Net-(C31-Pad2)*%
X182800000Y-85090000D03*
%TD*%
D17*
%TO.P,J3,1,Pin_1*%
%TO.N,Net-(J3-Pin_1)*%
X167624999Y-106679999D03*
D18*
%TO.P,J3,2,Pin_2*%
%TO.N,Net-(J3-Pin_2)*%
X165084999Y-106679999D03*
%TO.P,J3,3,Pin_3*%
X162544999Y-106679999D03*
%TD*%
D24*
%TO.P,RL1,1*%
%TO.N,Net-(C31-Pad2)*%
X196850000Y-100330000D03*
D25*
%TO.P,RL1,2*%
%TO.N,GND*%
X196849999Y-110489999D03*
%TD*%
D24*
%TO.P,C212,1*%
%TO.N,Net-(J3-Pin_2)*%
X160020000Y-116880000D03*
%TO.P,C212,2*%
%TO.N,GND*%
X160020000Y-121880000D03*
%TD*%
D20*
%TO.P,H3,1*%
%TO.N,N/C*%
X217630000Y-49440000D03*
D19*
X217630000Y-49440000D03*
%TD*%
D24*
%TO.P,R2,1*%
%TO.N,Net-(Q1-B)*%
X142240000Y-96520000D03*
D25*
%TO.P,R2,2*%
%TO.N,GND*%
X142239999Y-106679999D03*
%TD*%
D17*
%TO.P,J1,1,Pin_1*%
%TO.N,Net-(J1-Pin_1)*%
X115554999Y-73659999D03*
D18*
%TO.P,J1,2,Pin_2*%
X113014999Y-73659999D03*
%TO.P,J1,3,Pin_3*%
%TO.N,IN*%
X110474999Y-73659999D03*
%TD*%
D24*
%TO.P,R4,1*%
%TO.N,Net-(J3-Pin_2)*%
X151130000Y-113030000D03*
D25*
%TO.P,R4,2*%
%TO.N,GND*%
X151129999Y-123189999D03*
%TD*%
D23*
%TO.P,C22,1*%
%TO.N,Net-(J3-Pin_1)*%
X179069999Y-106679999D03*
D24*
%TO.P,C22,2*%
%TO.N,GND*%
X179070000Y-110180000D03*
%TD*%
D26*
%TO.P,Q1,1,E*%
%TO.N,Net-(Q1-E)*%
X151129999Y-87629999D03*
D27*
%TO.P,Q1,2,B*%
%TO.N,Net-(Q1-B)*%
X152399999Y-86359999D03*
%TO.P,Q1,3,C*%
%TO.N,Net-(J2-Pin_2)*%
X151129999Y-85089999D03*
%TD*%
D24*
%TO.P,R3,1*%
%TO.N,Net-(Q1-E)*%
X151130000Y-96520000D03*
D25*
%TO.P,R3,2*%
%TO.N,Net-(J3-Pin_2)*%
X151129999Y-106679999D03*
%TD*%
D24*
%TO.P,R1,1*%
%TO.N,Net-(D2-K)*%
X142240000Y-57150000D03*
D25*
%TO.P,R1,2*%
%TO.N,Net-(Q1-B)*%
X142239999Y-67309999D03*
%TD*%
D24*
%TO.P,C32,1*%
%TO.N,Net-(J2-Pin_1)*%
X190500000Y-72390000D03*
%TO.P,C32,2*%
%TO.N,Net-(C31-Pad2)*%
X190500000Y-74390000D03*
%TD*%
%TO.P,R5,1*%
%TO.N,Net-(D2-K)*%
X151130000Y-57150000D03*
D25*
%TO.P,R5,2*%
%TO.N,Net-(J2-Pin_2)*%
X151129999Y-67309999D03*
%TD*%
D19*
%TO.P,H1,1*%
%TO.N,N/C*%
X217630000Y-126240000D03*
D20*
X217630000Y-126240000D03*
%TD*%
D24*
%TO.P,C211,1*%
%TO.N,Net-(J3-Pin_2)*%
X168910000Y-116880000D03*
%TO.P,C211,2*%
%TO.N,GND*%
X168910000Y-121880000D03*
%TD*%
D28*
%TO.N,GND*%
X201000000Y-127000000D02*
X209930000Y-118070000D01*
X209930000Y-118070000D02*
X218745000Y-118070000D01*
X196850000Y-127000000D02*
X201000000Y-127000000D01*
X125250000Y-127000000D02*
X142240000Y-127000000D01*
X106000000Y-107750000D02*
X125250000Y-127000000D01*
X100330000Y-107750000D02*
X106000000Y-107750000D01*
D29*
%TO.N,Net-(Q1-B)*%
X129540000Y-73660000D02*
X142240000Y-73660000D01*
X142240000Y-96520000D02*
X142240000Y-86360000D01*
X142240000Y-67310000D02*
X142240000Y-73660000D01*
X142210480Y-86330480D02*
X143539520Y-86330480D01*
X142210480Y-86330480D02*
X142240000Y-86300960D01*
X152370480Y-86330480D02*
X152400000Y-86360000D01*
X135690000Y-86360000D02*
X135719520Y-86330480D01*
X142240000Y-86360000D02*
X142210480Y-86330480D01*
X142240000Y-86300960D02*
X142240000Y-73660000D01*
X143539520Y-86330480D02*
X152370480Y-86330480D01*
X135719520Y-86330480D02*
X142210480Y-86330480D01*
%TO.N,IN*%
X110475000Y-73660000D02*
X110475000Y-86145000D01*
X110475000Y-64785000D02*
X110490000Y-64770000D01*
X100330000Y-86360000D02*
X110690000Y-86360000D01*
X110475000Y-86145000D02*
X110690000Y-86360000D01*
X110475000Y-73660000D02*
X110475000Y-64785000D01*
%TO.N,Net-(J1-Pin_1)*%
X115555000Y-73660000D02*
X127040000Y-73660000D01*
X113015000Y-73660000D02*
X115555000Y-73660000D01*
%TO.N,Net-(J3-Pin_1)*%
X167625000Y-106680000D02*
X179070000Y-106680000D01*
D28*
%TO.N,GND*%
X218745000Y-103175000D02*
X218745000Y-79045000D01*
X179070000Y-127000000D02*
X196850000Y-127000000D01*
X218745000Y-79045000D02*
X215900000Y-76200000D01*
D29*
X160020000Y-121880000D02*
X168910000Y-121880000D01*
X160020000Y-121880000D02*
X160020000Y-127000000D01*
X179070000Y-110180000D02*
X179070000Y-127000000D01*
D28*
X218745000Y-113070000D02*
X218745000Y-106375000D01*
D29*
X142240000Y-106680000D02*
X142240000Y-127000000D01*
X208280000Y-67310000D02*
X208280000Y-76200000D01*
D28*
X208280000Y-76200000D02*
X204470000Y-76200000D01*
X151130000Y-127000000D02*
X160020000Y-127000000D01*
D29*
X151130000Y-123190000D02*
X151130000Y-127000000D01*
D28*
X160020000Y-127000000D02*
X179070000Y-127000000D01*
D29*
X196850000Y-110490000D02*
X196850000Y-127000000D01*
D28*
X215900000Y-76200000D02*
X208280000Y-76200000D01*
X218745000Y-106375000D02*
X218745000Y-103175000D01*
X218745000Y-113070000D02*
X218745000Y-118070000D01*
X142240000Y-127000000D02*
X151130000Y-127000000D01*
D29*
%TO.N,Net-(J2-Pin_2)*%
X175245000Y-72390000D02*
X177785000Y-72390000D01*
X151130000Y-67310000D02*
X151130000Y-85090000D01*
X162560000Y-72390000D02*
X175245000Y-72390000D01*
X162560000Y-72390000D02*
X162560000Y-85090000D01*
X165100000Y-85090000D02*
X172800000Y-85090000D01*
X151130000Y-85090000D02*
X162560000Y-85090000D01*
X162560000Y-85090000D02*
X165100000Y-85090000D01*
%TO.N,Net-(C31-Pad2)*%
X196850000Y-100330000D02*
X196850000Y-85090000D01*
X190500000Y-74390000D02*
X190500000Y-85090000D01*
X182800000Y-85090000D02*
X196850000Y-85090000D01*
X196850000Y-85090000D02*
X213360000Y-85090000D01*
%TO.N,Net-(J2-Pin_1)*%
X180325000Y-72390000D02*
X190500000Y-72390000D01*
%TO.N,Net-(J3-Pin_2)*%
X160020000Y-116880000D02*
X168910000Y-116880000D01*
X160020000Y-114300000D02*
X160020000Y-116880000D01*
X158750000Y-113030000D02*
X160020000Y-114300000D01*
X151130000Y-106680000D02*
X151130000Y-113030000D01*
X162545000Y-106680000D02*
X165085000Y-106680000D01*
X151130000Y-106680000D02*
X162545000Y-106680000D01*
X151130000Y-113030000D02*
X158750000Y-113030000D01*
%TO.N,Net-(D1-A)*%
X201930000Y-76200000D02*
X201930000Y-67310000D01*
D28*
%TO.N,Net-(D2-K)*%
X142280000Y-57190000D02*
X142240000Y-57150000D01*
X218745000Y-57190000D02*
X218745000Y-62190000D01*
X218745000Y-57190000D02*
X142280000Y-57190000D01*
D29*
%TO.N,Net-(Q1-E)*%
X151130000Y-87630000D02*
X151130000Y-96520000D01*
X162560000Y-96520000D02*
X151130000Y-96520000D01*
%TD*%
M02*
