M48
; DRILL file {KiCad (7.0.0)} date Sat Mar  4 17:35:54 2023
; FORMAT={-:-/ absolute / metric / decimal}
; #@! TF.CreationDate,2023-03-04T17:35:54+02:00
; #@! TF.GenerationSoftware,Kicad,Pcbnew,(7.0.0)
; #@! TF.FileFunction,Plated,1,2,PTH
FMAT,2
METRIC
; #@! TA.AperFunction,Plated,PTH,ComponentDrill
T1C0.700
; #@! TA.AperFunction,Plated,PTH,ComponentDrill
T2C0.800
; #@! TA.AperFunction,Plated,PTH,ComponentDrill
T3C0.900
; #@! TA.AperFunction,Plated,PTH,ComponentDrill
T4C0.950
; #@! TA.AperFunction,Plated,PTH,ComponentDrill
T5C1.000
; #@! TA.AperFunction,Plated,PTH,ComponentDrill
T6C1.100
; #@! TA.AperFunction,Plated,PTH,ComponentDrill
T7C1.300
; #@! TA.AperFunction,Plated,PTH,ComponentDrill
T8C1.600
; #@! TA.AperFunction,Plated,PTH,ComponentDrill
T9C2.520
; #@! TA.AperFunction,Plated,PTH,ComponentDrill
T10C3.200
%
G90
G05
T1
X151.13Y-85.09
X151.13Y-87.63
X152.4Y-86.36
T2
X127.04Y-73.66
X129.54Y-73.66
X142.24Y-57.15
X142.24Y-67.31
X142.24Y-96.52
X142.24Y-106.68
X151.13Y-57.15
X151.13Y-67.31
X151.13Y-96.52
X151.13Y-106.68
X151.13Y-113.03
X151.13Y-123.19
X160.02Y-116.88
X160.02Y-121.88
X168.91Y-116.88
X168.91Y-121.88
X172.8Y-85.09
X179.07Y-106.68
X179.07Y-110.18
X182.8Y-85.09
X190.5Y-72.39
X190.5Y-74.39
X196.85Y-100.33
X196.85Y-110.49
X201.93Y-57.15
X201.93Y-67.31
T3
X201.93Y-76.2
X204.47Y-76.2
T4
X110.69Y-86.36
X135.69Y-86.36
T5
X110.475Y-73.66
X113.015Y-73.66
X115.555Y-73.66
X162.545Y-106.68
X165.085Y-106.68
X167.625Y-106.68
X175.245Y-72.39
X177.785Y-72.39
X180.325Y-72.39
T6
X208.28Y-57.15
X208.28Y-67.31
T7
X218.745Y-57.19
X218.745Y-62.19
X218.745Y-113.07
X218.745Y-118.07
T8
X110.49Y-64.77
X162.56Y-72.39
X162.56Y-96.52
X213.36Y-85.09
T9
X100.33Y-86.36
X100.33Y-107.75
X125.73Y-127.0
X179.0Y-127.0
X200.66Y-127.0
T10
X90.83Y-49.44
X90.83Y-126.24
X217.63Y-49.44
X217.63Y-126.24
T0
M30
